<mxfile host="app.diagrams.net" agent="Mozilla/5.0 (Windows NT 10.0; Win64; x64) AppleWebKit/537.36 (KHTML, like Gecko) Chrome/142.0.0.0 Safari/537.36" version="28.2.8">
  <diagram name="Página-1" id="iUxmjYkSb9Hh-DBhbyky">
    <mxGraphModel dx="1603" dy="4245" grid="1" gridSize="11" guides="1" tooltips="1" connect="1" arrows="1" fold="1" page="1" pageScale="1" pageWidth="2339" pageHeight="3300" background="#FFFEFB" math="0" shadow="0">
      <root>
        <mxCell id="0" />
        <mxCell id="1" parent="0" />
        <mxCell id="7DgoJ2IFJHL6SHzVlsKf-6" value="" style="endArrow=block;endSize=16;endFill=0;html=1;rounded=0;exitX=0.5;exitY=0;exitDx=0;exitDy=0;entryX=0;entryY=0.25;entryDx=0;entryDy=0;" parent="1" source="7DgoJ2IFJHL6SHzVlsKf-1" target="ohtro0tpW4yDw1OSoTFA-1" edge="1">
          <mxGeometry width="160" relative="1" as="geometry">
            <mxPoint x="344" y="198" as="sourcePoint" />
            <mxPoint x="504" y="198" as="targetPoint" />
          </mxGeometry>
        </mxCell>
        <mxCell id="7DgoJ2IFJHL6SHzVlsKf-12" value="" style="endArrow=block;endSize=16;endFill=0;html=1;rounded=0;exitX=0.88;exitY=0;exitDx=0;exitDy=0;exitPerimeter=0;entryX=1;entryY=0.75;entryDx=0;entryDy=0;" parent="1" source="7DgoJ2IFJHL6SHzVlsKf-7" target="ohtro0tpW4yDw1OSoTFA-1" edge="1">
          <mxGeometry width="160" relative="1" as="geometry">
            <mxPoint x="286" y="495" as="sourcePoint" />
            <mxPoint x="446" y="495" as="targetPoint" />
            <Array as="points">
              <mxPoint x="550" y="569" />
            </Array>
          </mxGeometry>
        </mxCell>
        <mxCell id="7DgoJ2IFJHL6SHzVlsKf-13" value="Representado por" style="shape=rhombus;perimeter=rhombusPerimeter;whiteSpace=wrap;html=1;align=center;" parent="1" vertex="1">
          <mxGeometry x="155" y="429" width="120" height="60" as="geometry" />
        </mxCell>
        <mxCell id="7DgoJ2IFJHL6SHzVlsKf-15" style="edgeStyle=orthogonalEdgeStyle;rounded=0;orthogonalLoop=1;jettySize=auto;html=1;entryX=0.6;entryY=0.825;entryDx=0;entryDy=0;entryPerimeter=0;" parent="1" source="7DgoJ2IFJHL6SHzVlsKf-13" target="7DgoJ2IFJHL6SHzVlsKf-1" edge="1">
          <mxGeometry relative="1" as="geometry" />
        </mxCell>
        <mxCell id="7DgoJ2IFJHL6SHzVlsKf-19" value="(1,N)" style="edgeLabel;html=1;align=center;verticalAlign=middle;resizable=0;points=[];" parent="7DgoJ2IFJHL6SHzVlsKf-15" vertex="1" connectable="0">
          <mxGeometry x="0.0619" y="8" relative="1" as="geometry">
            <mxPoint x="8" y="2" as="offset" />
          </mxGeometry>
        </mxCell>
        <mxCell id="7DgoJ2IFJHL6SHzVlsKf-16" style="edgeStyle=orthogonalEdgeStyle;rounded=0;orthogonalLoop=1;jettySize=auto;html=1;entryX=0.331;entryY=-0.037;entryDx=0;entryDy=0;entryPerimeter=0;" parent="1" source="7DgoJ2IFJHL6SHzVlsKf-13" target="7DgoJ2IFJHL6SHzVlsKf-7" edge="1">
          <mxGeometry relative="1" as="geometry" />
        </mxCell>
        <mxCell id="7DgoJ2IFJHL6SHzVlsKf-18" value="(0,1)" style="edgeLabel;html=1;align=center;verticalAlign=middle;resizable=0;points=[];" parent="7DgoJ2IFJHL6SHzVlsKf-16" vertex="1" connectable="0">
          <mxGeometry x="-0.0672" y="2" relative="1" as="geometry">
            <mxPoint as="offset" />
          </mxGeometry>
        </mxCell>
        <mxCell id="7DgoJ2IFJHL6SHzVlsKf-26" value="" style="group" parent="1" vertex="1" connectable="0">
          <mxGeometry x="451" y="-198" width="232" height="95" as="geometry" />
        </mxCell>
        <mxCell id="7DgoJ2IFJHL6SHzVlsKf-21" value="Papel" style="rounded=1;arcSize=10;whiteSpace=wrap;html=1;align=center;movable=1;resizable=1;rotatable=1;deletable=1;editable=1;locked=0;connectable=1;" parent="7DgoJ2IFJHL6SHzVlsKf-26" vertex="1">
          <mxGeometry x="132" y="22" width="100" height="40" as="geometry" />
        </mxCell>
        <mxCell id="7DgoJ2IFJHL6SHzVlsKf-22" value="id_papel" style="ellipse;whiteSpace=wrap;html=1;align=center;fontStyle=4;movable=1;resizable=1;rotatable=1;deletable=1;editable=1;locked=0;connectable=1;" parent="7DgoJ2IFJHL6SHzVlsKf-26" vertex="1">
          <mxGeometry width="100" height="40" as="geometry" />
        </mxCell>
        <mxCell id="7DgoJ2IFJHL6SHzVlsKf-23" value="tipo_papel" style="ellipse;whiteSpace=wrap;html=1;align=center;movable=1;resizable=1;rotatable=1;deletable=1;editable=1;locked=0;connectable=1;" parent="7DgoJ2IFJHL6SHzVlsKf-26" vertex="1">
          <mxGeometry y="55" width="100" height="40" as="geometry" />
        </mxCell>
        <mxCell id="7DgoJ2IFJHL6SHzVlsKf-24" style="edgeStyle=orthogonalEdgeStyle;rounded=0;orthogonalLoop=1;jettySize=auto;html=1;entryX=0;entryY=0.5;entryDx=0;entryDy=0;" parent="7DgoJ2IFJHL6SHzVlsKf-26" source="7DgoJ2IFJHL6SHzVlsKf-22" target="7DgoJ2IFJHL6SHzVlsKf-21" edge="1">
          <mxGeometry relative="1" as="geometry" />
        </mxCell>
        <mxCell id="7DgoJ2IFJHL6SHzVlsKf-25" style="edgeStyle=orthogonalEdgeStyle;rounded=0;orthogonalLoop=1;jettySize=auto;html=1;entryX=0;entryY=0.75;entryDx=0;entryDy=0;" parent="7DgoJ2IFJHL6SHzVlsKf-26" source="7DgoJ2IFJHL6SHzVlsKf-23" target="7DgoJ2IFJHL6SHzVlsKf-21" edge="1">
          <mxGeometry relative="1" as="geometry" />
        </mxCell>
        <mxCell id="7DgoJ2IFJHL6SHzVlsKf-27" value="" style="group" parent="1" vertex="1" connectable="0">
          <mxGeometry x="331" y="407" width="210" height="140" as="geometry" />
        </mxCell>
        <mxCell id="ohtro0tpW4yDw1OSoTFA-1" value="Pessoa" style="rounded=1;arcSize=10;whiteSpace=wrap;html=1;align=center;" parent="7DgoJ2IFJHL6SHzVlsKf-27" vertex="1">
          <mxGeometry x="130" width="80" height="40" as="geometry" />
        </mxCell>
        <mxCell id="ohtro0tpW4yDw1OSoTFA-2" value="id_pessoa" style="ellipse;whiteSpace=wrap;html=1;align=center;fontStyle=4;" parent="7DgoJ2IFJHL6SHzVlsKf-27" vertex="1">
          <mxGeometry width="100" height="40" as="geometry" />
        </mxCell>
        <mxCell id="ohtro0tpW4yDw1OSoTFA-4" value="nome" style="ellipse;whiteSpace=wrap;html=1;align=center;" parent="7DgoJ2IFJHL6SHzVlsKf-27" vertex="1">
          <mxGeometry y="52" width="100" height="40" as="geometry" />
        </mxCell>
        <mxCell id="ohtro0tpW4yDw1OSoTFA-6" value="tipo_pessoa" style="ellipse;whiteSpace=wrap;html=1;align=center;" parent="7DgoJ2IFJHL6SHzVlsKf-27" vertex="1">
          <mxGeometry y="100" width="100" height="40" as="geometry" />
        </mxCell>
        <mxCell id="ohtro0tpW4yDw1OSoTFA-3" value="" style="edgeStyle=orthogonalEdgeStyle;rounded=0;orthogonalLoop=1;jettySize=auto;html=1;" parent="7DgoJ2IFJHL6SHzVlsKf-27" source="ohtro0tpW4yDw1OSoTFA-2" target="ohtro0tpW4yDw1OSoTFA-1" edge="1">
          <mxGeometry relative="1" as="geometry" />
        </mxCell>
        <mxCell id="ohtro0tpW4yDw1OSoTFA-5" style="edgeStyle=orthogonalEdgeStyle;rounded=0;orthogonalLoop=1;jettySize=auto;html=1;entryX=0;entryY=0.75;entryDx=0;entryDy=0;" parent="7DgoJ2IFJHL6SHzVlsKf-27" source="ohtro0tpW4yDw1OSoTFA-4" target="ohtro0tpW4yDw1OSoTFA-1" edge="1">
          <mxGeometry relative="1" as="geometry" />
        </mxCell>
        <mxCell id="ohtro0tpW4yDw1OSoTFA-7" style="edgeStyle=orthogonalEdgeStyle;rounded=0;orthogonalLoop=1;jettySize=auto;html=1;entryX=0;entryY=1;entryDx=0;entryDy=0;" parent="7DgoJ2IFJHL6SHzVlsKf-27" source="ohtro0tpW4yDw1OSoTFA-6" target="ohtro0tpW4yDw1OSoTFA-1" edge="1">
          <mxGeometry relative="1" as="geometry" />
        </mxCell>
        <mxCell id="7DgoJ2IFJHL6SHzVlsKf-28" value="" style="group" parent="1" vertex="1" connectable="0">
          <mxGeometry x="11" y="282" width="254" height="95" as="geometry" />
        </mxCell>
        <mxCell id="7DgoJ2IFJHL6SHzVlsKf-1" value="Física" style="rounded=1;arcSize=10;whiteSpace=wrap;html=1;align=center;" parent="7DgoJ2IFJHL6SHzVlsKf-28" vertex="1">
          <mxGeometry x="154" y="33" width="100" height="40" as="geometry" />
        </mxCell>
        <mxCell id="7DgoJ2IFJHL6SHzVlsKf-2" value="id_pessoa" style="ellipse;whiteSpace=wrap;html=1;align=center;fontStyle=4;" parent="7DgoJ2IFJHL6SHzVlsKf-28" vertex="1">
          <mxGeometry width="100" height="40" as="geometry" />
        </mxCell>
        <mxCell id="7DgoJ2IFJHL6SHzVlsKf-4" value="cpf" style="ellipse;whiteSpace=wrap;html=1;align=center;" parent="7DgoJ2IFJHL6SHzVlsKf-28" vertex="1">
          <mxGeometry y="55" width="100" height="40" as="geometry" />
        </mxCell>
        <mxCell id="7DgoJ2IFJHL6SHzVlsKf-3" style="edgeStyle=orthogonalEdgeStyle;rounded=0;orthogonalLoop=1;jettySize=auto;html=1;entryX=0;entryY=0.25;entryDx=0;entryDy=0;" parent="7DgoJ2IFJHL6SHzVlsKf-28" source="7DgoJ2IFJHL6SHzVlsKf-2" target="7DgoJ2IFJHL6SHzVlsKf-1" edge="1">
          <mxGeometry relative="1" as="geometry" />
        </mxCell>
        <mxCell id="7DgoJ2IFJHL6SHzVlsKf-5" style="edgeStyle=orthogonalEdgeStyle;rounded=0;orthogonalLoop=1;jettySize=auto;html=1;entryX=0;entryY=0.5;entryDx=0;entryDy=0;" parent="7DgoJ2IFJHL6SHzVlsKf-28" source="7DgoJ2IFJHL6SHzVlsKf-4" target="7DgoJ2IFJHL6SHzVlsKf-1" edge="1">
          <mxGeometry relative="1" as="geometry" />
        </mxCell>
        <mxCell id="7DgoJ2IFJHL6SHzVlsKf-29" value="" style="group" parent="1" vertex="1" connectable="0">
          <mxGeometry x="11" y="547" width="276" height="84" as="geometry" />
        </mxCell>
        <mxCell id="7DgoJ2IFJHL6SHzVlsKf-7" value="Jurídica" style="rounded=1;arcSize=10;whiteSpace=wrap;html=1;align=center;" parent="7DgoJ2IFJHL6SHzVlsKf-29" vertex="1">
          <mxGeometry x="176" y="22" width="100" height="40" as="geometry" />
        </mxCell>
        <mxCell id="7DgoJ2IFJHL6SHzVlsKf-8" value="id_pessoa" style="ellipse;whiteSpace=wrap;html=1;align=center;fontStyle=4;" parent="7DgoJ2IFJHL6SHzVlsKf-29" vertex="1">
          <mxGeometry width="100" height="40" as="geometry" />
        </mxCell>
        <mxCell id="7DgoJ2IFJHL6SHzVlsKf-10" value="cnpj" style="ellipse;whiteSpace=wrap;html=1;align=center;" parent="7DgoJ2IFJHL6SHzVlsKf-29" vertex="1">
          <mxGeometry y="44" width="100" height="40" as="geometry" />
        </mxCell>
        <mxCell id="7DgoJ2IFJHL6SHzVlsKf-9" style="edgeStyle=orthogonalEdgeStyle;rounded=0;orthogonalLoop=1;jettySize=auto;html=1;entryX=0;entryY=0.5;entryDx=0;entryDy=0;" parent="7DgoJ2IFJHL6SHzVlsKf-29" source="7DgoJ2IFJHL6SHzVlsKf-8" target="7DgoJ2IFJHL6SHzVlsKf-7" edge="1">
          <mxGeometry relative="1" as="geometry" />
        </mxCell>
        <mxCell id="7DgoJ2IFJHL6SHzVlsKf-11" style="edgeStyle=orthogonalEdgeStyle;rounded=0;orthogonalLoop=1;jettySize=auto;html=1;entryX=0;entryY=0.75;entryDx=0;entryDy=0;" parent="7DgoJ2IFJHL6SHzVlsKf-29" source="7DgoJ2IFJHL6SHzVlsKf-10" target="7DgoJ2IFJHL6SHzVlsKf-7" edge="1">
          <mxGeometry relative="1" as="geometry" />
        </mxCell>
        <mxCell id="7DgoJ2IFJHL6SHzVlsKf-33" value="" style="group" parent="1" vertex="1" connectable="0">
          <mxGeometry x="429" y="242" width="221" height="40" as="geometry" />
        </mxCell>
        <mxCell id="7DgoJ2IFJHL6SHzVlsKf-30" value="Localizacao" style="rounded=1;arcSize=10;whiteSpace=wrap;html=1;align=center;" parent="7DgoJ2IFJHL6SHzVlsKf-33" vertex="1">
          <mxGeometry x="121" width="100" height="40" as="geometry" />
        </mxCell>
        <mxCell id="7DgoJ2IFJHL6SHzVlsKf-31" value="id_localizacao" style="ellipse;whiteSpace=wrap;html=1;align=center;fontStyle=4;" parent="7DgoJ2IFJHL6SHzVlsKf-33" vertex="1">
          <mxGeometry width="100" height="40" as="geometry" />
        </mxCell>
        <mxCell id="7DgoJ2IFJHL6SHzVlsKf-32" style="edgeStyle=orthogonalEdgeStyle;rounded=0;orthogonalLoop=1;jettySize=auto;html=1;entryX=0;entryY=0.5;entryDx=0;entryDy=0;" parent="7DgoJ2IFJHL6SHzVlsKf-33" source="7DgoJ2IFJHL6SHzVlsKf-31" target="7DgoJ2IFJHL6SHzVlsKf-30" edge="1">
          <mxGeometry relative="1" as="geometry" />
        </mxCell>
        <mxCell id="7DgoJ2IFJHL6SHzVlsKf-50" value="" style="group" parent="1" vertex="1" connectable="0">
          <mxGeometry x="98" y="-63.5" width="408" height="213.5" as="geometry" />
        </mxCell>
        <mxCell id="7DgoJ2IFJHL6SHzVlsKf-34" value="" style="group" parent="7DgoJ2IFJHL6SHzVlsKf-50" vertex="1" connectable="0">
          <mxGeometry width="221" height="40" as="geometry" />
        </mxCell>
        <mxCell id="7DgoJ2IFJHL6SHzVlsKf-35" value="Geográfica" style="rounded=1;arcSize=10;whiteSpace=wrap;html=1;align=center;" parent="7DgoJ2IFJHL6SHzVlsKf-34" vertex="1">
          <mxGeometry x="121" width="100" height="40" as="geometry" />
        </mxCell>
        <mxCell id="7DgoJ2IFJHL6SHzVlsKf-36" value="id_localizacao" style="ellipse;whiteSpace=wrap;html=1;align=center;fontStyle=4;" parent="7DgoJ2IFJHL6SHzVlsKf-34" vertex="1">
          <mxGeometry width="100" height="40" as="geometry" />
        </mxCell>
        <mxCell id="7DgoJ2IFJHL6SHzVlsKf-37" style="edgeStyle=orthogonalEdgeStyle;rounded=0;orthogonalLoop=1;jettySize=auto;html=1;entryX=0;entryY=0.5;entryDx=0;entryDy=0;" parent="7DgoJ2IFJHL6SHzVlsKf-34" source="7DgoJ2IFJHL6SHzVlsKf-36" target="7DgoJ2IFJHL6SHzVlsKf-35" edge="1">
          <mxGeometry relative="1" as="geometry" />
        </mxCell>
        <mxCell id="7DgoJ2IFJHL6SHzVlsKf-38" value="País" style="ellipse;whiteSpace=wrap;html=1;align=center;" parent="7DgoJ2IFJHL6SHzVlsKf-50" vertex="1">
          <mxGeometry y="44" width="100" height="40" as="geometry" />
        </mxCell>
        <mxCell id="7DgoJ2IFJHL6SHzVlsKf-39" value="Estado" style="ellipse;whiteSpace=wrap;html=1;align=center;" parent="7DgoJ2IFJHL6SHzVlsKf-50" vertex="1">
          <mxGeometry x="11" y="93.5" width="100" height="40" as="geometry" />
        </mxCell>
        <mxCell id="7DgoJ2IFJHL6SHzVlsKf-40" value="Cidade" style="ellipse;whiteSpace=wrap;html=1;align=center;" parent="7DgoJ2IFJHL6SHzVlsKf-50" vertex="1">
          <mxGeometry x="77" y="133.5" width="100" height="40" as="geometry" />
        </mxCell>
        <mxCell id="7DgoJ2IFJHL6SHzVlsKf-41" value="Endereco" style="ellipse;whiteSpace=wrap;html=1;align=center;" parent="7DgoJ2IFJHL6SHzVlsKf-50" vertex="1">
          <mxGeometry x="132" y="173.5" width="100" height="40" as="geometry" />
        </mxCell>
        <mxCell id="7DgoJ2IFJHL6SHzVlsKf-46" value="Complemento" style="ellipse;whiteSpace=wrap;html=1;align=center;" parent="7DgoJ2IFJHL6SHzVlsKf-50" vertex="1">
          <mxGeometry x="177" y="133.5" width="100" height="40" as="geometry" />
        </mxCell>
        <mxCell id="7DgoJ2IFJHL6SHzVlsKf-47" value="Número" style="ellipse;whiteSpace=wrap;html=1;align=center;" parent="7DgoJ2IFJHL6SHzVlsKf-50" vertex="1">
          <mxGeometry x="264" y="110" width="100" height="40" as="geometry" />
        </mxCell>
        <mxCell id="7DgoJ2IFJHL6SHzVlsKf-42" style="edgeStyle=orthogonalEdgeStyle;rounded=0;orthogonalLoop=1;jettySize=auto;html=1;entryX=0.084;entryY=1.015;entryDx=0;entryDy=0;entryPerimeter=0;" parent="7DgoJ2IFJHL6SHzVlsKf-50" source="7DgoJ2IFJHL6SHzVlsKf-38" target="7DgoJ2IFJHL6SHzVlsKf-35" edge="1">
          <mxGeometry relative="1" as="geometry" />
        </mxCell>
        <mxCell id="7DgoJ2IFJHL6SHzVlsKf-43" style="edgeStyle=orthogonalEdgeStyle;rounded=0;orthogonalLoop=1;jettySize=auto;html=1;entryX=0.201;entryY=0.969;entryDx=0;entryDy=0;entryPerimeter=0;" parent="7DgoJ2IFJHL6SHzVlsKf-50" source="7DgoJ2IFJHL6SHzVlsKf-39" target="7DgoJ2IFJHL6SHzVlsKf-35" edge="1">
          <mxGeometry relative="1" as="geometry" />
        </mxCell>
        <mxCell id="7DgoJ2IFJHL6SHzVlsKf-44" style="edgeStyle=orthogonalEdgeStyle;rounded=0;orthogonalLoop=1;jettySize=auto;html=1;entryX=0.324;entryY=0.985;entryDx=0;entryDy=0;entryPerimeter=0;" parent="7DgoJ2IFJHL6SHzVlsKf-50" source="7DgoJ2IFJHL6SHzVlsKf-40" target="7DgoJ2IFJHL6SHzVlsKf-35" edge="1">
          <mxGeometry relative="1" as="geometry" />
        </mxCell>
        <mxCell id="7DgoJ2IFJHL6SHzVlsKf-48" style="edgeStyle=orthogonalEdgeStyle;rounded=0;orthogonalLoop=1;jettySize=auto;html=1;entryX=0.5;entryY=1;entryDx=0;entryDy=0;" parent="7DgoJ2IFJHL6SHzVlsKf-50" source="7DgoJ2IFJHL6SHzVlsKf-46" target="7DgoJ2IFJHL6SHzVlsKf-35" edge="1">
          <mxGeometry relative="1" as="geometry" />
        </mxCell>
        <mxCell id="7DgoJ2IFJHL6SHzVlsKf-49" style="edgeStyle=orthogonalEdgeStyle;rounded=0;orthogonalLoop=1;jettySize=auto;html=1;entryX=0.75;entryY=1;entryDx=0;entryDy=0;" parent="7DgoJ2IFJHL6SHzVlsKf-50" source="7DgoJ2IFJHL6SHzVlsKf-47" target="7DgoJ2IFJHL6SHzVlsKf-35" edge="1">
          <mxGeometry relative="1" as="geometry">
            <Array as="points">
              <mxPoint x="286" y="66" />
              <mxPoint x="196" y="66" />
            </Array>
          </mxGeometry>
        </mxCell>
        <mxCell id="7DgoJ2IFJHL6SHzVlsKf-108" style="edgeStyle=orthogonalEdgeStyle;rounded=0;orthogonalLoop=1;jettySize=auto;html=1;entryX=0.422;entryY=0.982;entryDx=0;entryDy=0;entryPerimeter=0;" parent="7DgoJ2IFJHL6SHzVlsKf-50" source="7DgoJ2IFJHL6SHzVlsKf-41" target="7DgoJ2IFJHL6SHzVlsKf-35" edge="1">
          <mxGeometry relative="1" as="geometry" />
        </mxCell>
        <mxCell id="7DgoJ2IFJHL6SHzVlsKf-57" value="" style="endArrow=block;endSize=16;endFill=0;html=1;rounded=0;exitX=0.5;exitY=0;exitDx=0;exitDy=0;entryX=0;entryY=0;entryDx=0;entryDy=0;" parent="1" source="7DgoJ2IFJHL6SHzVlsKf-35" target="7DgoJ2IFJHL6SHzVlsKf-30" edge="1">
          <mxGeometry width="160" relative="1" as="geometry">
            <mxPoint x="664" y="360" as="sourcePoint" />
            <mxPoint x="660" y="160" as="targetPoint" />
            <Array as="points">
              <mxPoint x="462" y="-63" />
            </Array>
          </mxGeometry>
        </mxCell>
        <mxCell id="7DgoJ2IFJHL6SHzVlsKf-58" value="" style="endArrow=block;endSize=16;endFill=0;html=1;rounded=0;entryX=1;entryY=0.5;entryDx=0;entryDy=0;exitX=0.5;exitY=0;exitDx=0;exitDy=0;" parent="1" source="7DgoJ2IFJHL6SHzVlsKf-52" target="7DgoJ2IFJHL6SHzVlsKf-30" edge="1">
          <mxGeometry width="160" relative="1" as="geometry">
            <mxPoint x="781" y="273" as="sourcePoint" />
            <mxPoint x="671" y="275" as="targetPoint" />
            <Array as="points">
              <mxPoint x="704" y="273" />
            </Array>
          </mxGeometry>
        </mxCell>
        <mxCell id="7DgoJ2IFJHL6SHzVlsKf-63" value="" style="group" parent="1" vertex="1" connectable="0">
          <mxGeometry x="407" y="-29" width="320" height="179" as="geometry" />
        </mxCell>
        <mxCell id="7DgoJ2IFJHL6SHzVlsKf-51" value="" style="group" parent="7DgoJ2IFJHL6SHzVlsKf-63" vertex="1" connectable="0">
          <mxGeometry y="40" width="194.28571428571425" height="40" as="geometry" />
        </mxCell>
        <mxCell id="7DgoJ2IFJHL6SHzVlsKf-52" value="Email" style="rounded=1;arcSize=10;whiteSpace=wrap;html=1;align=center;" parent="7DgoJ2IFJHL6SHzVlsKf-51" vertex="1">
          <mxGeometry x="106.37362637362637" width="87.9120879120879" height="40" as="geometry" />
        </mxCell>
        <mxCell id="7DgoJ2IFJHL6SHzVlsKf-59" value="endereco_email" style="ellipse;whiteSpace=wrap;html=1;align=center;" parent="7DgoJ2IFJHL6SHzVlsKf-63" vertex="1">
          <mxGeometry x="232.08791208791206" width="87.9120879120879" height="40" as="geometry" />
        </mxCell>
        <mxCell id="7DgoJ2IFJHL6SHzVlsKf-60" value="id_email" style="ellipse;whiteSpace=wrap;html=1;align=center;fontStyle=4;" parent="7DgoJ2IFJHL6SHzVlsKf-63" vertex="1">
          <mxGeometry x="222.4175824175824" y="95" width="87.9120879120879" height="40" as="geometry" />
        </mxCell>
        <mxCell id="7DgoJ2IFJHL6SHzVlsKf-53" value="id_localizacao" style="ellipse;whiteSpace=wrap;html=1;align=center;fontStyle=4;" parent="7DgoJ2IFJHL6SHzVlsKf-63" vertex="1">
          <mxGeometry x="116.04395604395603" y="139" width="87.9120879120879" height="40" as="geometry" />
        </mxCell>
        <mxCell id="7DgoJ2IFJHL6SHzVlsKf-61" style="edgeStyle=orthogonalEdgeStyle;rounded=0;orthogonalLoop=1;jettySize=auto;html=1;entryX=1;entryY=0.5;entryDx=0;entryDy=0;" parent="7DgoJ2IFJHL6SHzVlsKf-63" source="7DgoJ2IFJHL6SHzVlsKf-59" target="7DgoJ2IFJHL6SHzVlsKf-52" edge="1">
          <mxGeometry relative="1" as="geometry" />
        </mxCell>
        <mxCell id="7DgoJ2IFJHL6SHzVlsKf-62" style="edgeStyle=orthogonalEdgeStyle;rounded=0;orthogonalLoop=1;jettySize=auto;html=1;entryX=0.886;entryY=0.95;entryDx=0;entryDy=0;entryPerimeter=0;" parent="7DgoJ2IFJHL6SHzVlsKf-63" source="7DgoJ2IFJHL6SHzVlsKf-60" target="7DgoJ2IFJHL6SHzVlsKf-52" edge="1">
          <mxGeometry relative="1" as="geometry">
            <Array as="points">
              <mxPoint x="212.74725274725273" y="117" />
              <mxPoint x="212.74725274725273" y="78" />
            </Array>
          </mxGeometry>
        </mxCell>
        <mxCell id="7DgoJ2IFJHL6SHzVlsKf-56" style="edgeStyle=orthogonalEdgeStyle;rounded=0;orthogonalLoop=1;jettySize=auto;html=1;entryX=0.25;entryY=1;entryDx=0;entryDy=0;" parent="7DgoJ2IFJHL6SHzVlsKf-63" source="7DgoJ2IFJHL6SHzVlsKf-53" target="7DgoJ2IFJHL6SHzVlsKf-52" edge="1">
          <mxGeometry relative="1" as="geometry" />
        </mxCell>
        <mxCell id="7DgoJ2IFJHL6SHzVlsKf-67" value="" style="group" parent="1" vertex="1" connectable="0">
          <mxGeometry x="363" y="704" width="221" height="40" as="geometry" />
        </mxCell>
        <mxCell id="7DgoJ2IFJHL6SHzVlsKf-64" value="Perfil" style="rounded=1;arcSize=10;whiteSpace=wrap;html=1;align=center;" parent="7DgoJ2IFJHL6SHzVlsKf-67" vertex="1">
          <mxGeometry x="121" width="100" height="40" as="geometry" />
        </mxCell>
        <mxCell id="7DgoJ2IFJHL6SHzVlsKf-65" value="id_perfil" style="ellipse;whiteSpace=wrap;html=1;align=center;fontStyle=4;" parent="7DgoJ2IFJHL6SHzVlsKf-67" vertex="1">
          <mxGeometry width="100" height="40" as="geometry" />
        </mxCell>
        <mxCell id="7DgoJ2IFJHL6SHzVlsKf-66" style="edgeStyle=orthogonalEdgeStyle;rounded=0;orthogonalLoop=1;jettySize=auto;html=1;entryX=0;entryY=0.5;entryDx=0;entryDy=0;" parent="7DgoJ2IFJHL6SHzVlsKf-67" source="7DgoJ2IFJHL6SHzVlsKf-65" target="7DgoJ2IFJHL6SHzVlsKf-64" edge="1">
          <mxGeometry relative="1" as="geometry" />
        </mxCell>
        <mxCell id="7DgoJ2IFJHL6SHzVlsKf-74" value="" style="group" parent="1" vertex="1" connectable="0">
          <mxGeometry x="285" y="924" width="221" height="84" as="geometry" />
        </mxCell>
        <mxCell id="7DgoJ2IFJHL6SHzVlsKf-68" value="" style="group" parent="7DgoJ2IFJHL6SHzVlsKf-74" vertex="1" connectable="0">
          <mxGeometry width="221" height="40" as="geometry" />
        </mxCell>
        <mxCell id="7DgoJ2IFJHL6SHzVlsKf-69" value="Habilidade" style="rounded=1;arcSize=10;whiteSpace=wrap;html=1;align=center;" parent="7DgoJ2IFJHL6SHzVlsKf-68" vertex="1">
          <mxGeometry x="121" width="100" height="40" as="geometry" />
        </mxCell>
        <mxCell id="7DgoJ2IFJHL6SHzVlsKf-70" value="id_habilidade" style="ellipse;whiteSpace=wrap;html=1;align=center;fontStyle=4;" parent="7DgoJ2IFJHL6SHzVlsKf-68" vertex="1">
          <mxGeometry width="100" height="40" as="geometry" />
        </mxCell>
        <mxCell id="7DgoJ2IFJHL6SHzVlsKf-71" style="edgeStyle=orthogonalEdgeStyle;rounded=0;orthogonalLoop=1;jettySize=auto;html=1;entryX=0;entryY=0.5;entryDx=0;entryDy=0;" parent="7DgoJ2IFJHL6SHzVlsKf-68" source="7DgoJ2IFJHL6SHzVlsKf-70" target="7DgoJ2IFJHL6SHzVlsKf-69" edge="1">
          <mxGeometry relative="1" as="geometry" />
        </mxCell>
        <mxCell id="7DgoJ2IFJHL6SHzVlsKf-72" value="descricao" style="ellipse;whiteSpace=wrap;html=1;align=center;" parent="7DgoJ2IFJHL6SHzVlsKf-74" vertex="1">
          <mxGeometry y="44" width="100" height="40" as="geometry" />
        </mxCell>
        <mxCell id="7DgoJ2IFJHL6SHzVlsKf-73" style="edgeStyle=orthogonalEdgeStyle;rounded=0;orthogonalLoop=1;jettySize=auto;html=1;entryX=0.081;entryY=0.944;entryDx=0;entryDy=0;entryPerimeter=0;" parent="7DgoJ2IFJHL6SHzVlsKf-74" source="7DgoJ2IFJHL6SHzVlsKf-72" target="7DgoJ2IFJHL6SHzVlsKf-69" edge="1">
          <mxGeometry relative="1" as="geometry" />
        </mxCell>
        <mxCell id="7DgoJ2IFJHL6SHzVlsKf-82" value="" style="group" parent="1" vertex="1" connectable="0">
          <mxGeometry x="617" y="858" width="200" height="124" as="geometry" />
        </mxCell>
        <mxCell id="7DgoJ2IFJHL6SHzVlsKf-80" value="descricao" style="ellipse;whiteSpace=wrap;html=1;align=center;" parent="7DgoJ2IFJHL6SHzVlsKf-82" vertex="1">
          <mxGeometry x="100" y="84" width="100" height="40" as="geometry" />
        </mxCell>
        <mxCell id="7DgoJ2IFJHL6SHzVlsKf-78" value="id_interesse" style="ellipse;whiteSpace=wrap;html=1;align=center;fontStyle=4;" parent="7DgoJ2IFJHL6SHzVlsKf-82" vertex="1">
          <mxGeometry y="84" width="100" height="40" as="geometry" />
        </mxCell>
        <mxCell id="7DgoJ2IFJHL6SHzVlsKf-77" value="Interesse" style="rounded=1;arcSize=10;whiteSpace=wrap;html=1;align=center;" parent="7DgoJ2IFJHL6SHzVlsKf-82" vertex="1">
          <mxGeometry x="45" width="100" height="40" as="geometry" />
        </mxCell>
        <mxCell id="7DgoJ2IFJHL6SHzVlsKf-79" style="edgeStyle=orthogonalEdgeStyle;rounded=0;orthogonalLoop=1;jettySize=auto;html=1;entryX=0.25;entryY=1;entryDx=0;entryDy=0;" parent="7DgoJ2IFJHL6SHzVlsKf-82" source="7DgoJ2IFJHL6SHzVlsKf-78" target="7DgoJ2IFJHL6SHzVlsKf-77" edge="1">
          <mxGeometry relative="1" as="geometry" />
        </mxCell>
        <mxCell id="7DgoJ2IFJHL6SHzVlsKf-81" style="edgeStyle=orthogonalEdgeStyle;rounded=0;orthogonalLoop=1;jettySize=auto;html=1;entryX=0.639;entryY=1.056;entryDx=0;entryDy=0;entryPerimeter=0;" parent="7DgoJ2IFJHL6SHzVlsKf-82" source="7DgoJ2IFJHL6SHzVlsKf-80" target="7DgoJ2IFJHL6SHzVlsKf-77" edge="1">
          <mxGeometry relative="1" as="geometry" />
        </mxCell>
        <mxCell id="7DgoJ2IFJHL6SHzVlsKf-84" style="edgeStyle=orthogonalEdgeStyle;rounded=0;orthogonalLoop=1;jettySize=auto;html=1;entryX=1;entryY=0.5;entryDx=0;entryDy=0;" parent="1" source="7DgoJ2IFJHL6SHzVlsKf-83" target="7DgoJ2IFJHL6SHzVlsKf-64" edge="1">
          <mxGeometry relative="1" as="geometry" />
        </mxCell>
        <mxCell id="7DgoJ2IFJHL6SHzVlsKf-86" value="(1,N)" style="edgeLabel;html=1;align=center;verticalAlign=middle;resizable=0;points=[];" parent="7DgoJ2IFJHL6SHzVlsKf-84" vertex="1" connectable="0">
          <mxGeometry x="0.1838" y="1" relative="1" as="geometry">
            <mxPoint as="offset" />
          </mxGeometry>
        </mxCell>
        <mxCell id="7DgoJ2IFJHL6SHzVlsKf-85" style="edgeStyle=orthogonalEdgeStyle;rounded=0;orthogonalLoop=1;jettySize=auto;html=1;entryX=0.5;entryY=0;entryDx=0;entryDy=0;" parent="1" source="7DgoJ2IFJHL6SHzVlsKf-83" target="7DgoJ2IFJHL6SHzVlsKf-77" edge="1">
          <mxGeometry relative="1" as="geometry" />
        </mxCell>
        <mxCell id="7DgoJ2IFJHL6SHzVlsKf-87" value="(1,N)" style="edgeLabel;html=1;align=center;verticalAlign=middle;resizable=0;points=[];" parent="7DgoJ2IFJHL6SHzVlsKf-85" vertex="1" connectable="0">
          <mxGeometry x="-0.2764" y="1" relative="1" as="geometry">
            <mxPoint as="offset" />
          </mxGeometry>
        </mxCell>
        <mxCell id="7DgoJ2IFJHL6SHzVlsKf-83" value="Possui" style="shape=rhombus;perimeter=rhombusPerimeter;whiteSpace=wrap;html=1;align=center;" parent="1" vertex="1">
          <mxGeometry x="652" y="744" width="120" height="60" as="geometry" />
        </mxCell>
        <mxCell id="7DgoJ2IFJHL6SHzVlsKf-88" value="Contém" style="shape=rhombus;perimeter=rhombusPerimeter;whiteSpace=wrap;html=1;align=center;" parent="1" vertex="1">
          <mxGeometry x="446.5" y="804" width="120" height="60" as="geometry" />
        </mxCell>
        <mxCell id="7DgoJ2IFJHL6SHzVlsKf-89" style="edgeStyle=orthogonalEdgeStyle;rounded=0;orthogonalLoop=1;jettySize=auto;html=1;entryX=0.622;entryY=-0.015;entryDx=0;entryDy=0;entryPerimeter=0;" parent="1" source="7DgoJ2IFJHL6SHzVlsKf-88" target="7DgoJ2IFJHL6SHzVlsKf-69" edge="1">
          <mxGeometry relative="1" as="geometry" />
        </mxCell>
        <mxCell id="7DgoJ2IFJHL6SHzVlsKf-92" value="(1,N)" style="edgeLabel;html=1;align=center;verticalAlign=middle;resizable=0;points=[];" parent="7DgoJ2IFJHL6SHzVlsKf-89" vertex="1" connectable="0">
          <mxGeometry x="0.0221" relative="1" as="geometry">
            <mxPoint as="offset" />
          </mxGeometry>
        </mxCell>
        <mxCell id="7DgoJ2IFJHL6SHzVlsKf-90" style="edgeStyle=orthogonalEdgeStyle;rounded=0;orthogonalLoop=1;jettySize=auto;html=1;entryX=0.414;entryY=0.988;entryDx=0;entryDy=0;entryPerimeter=0;" parent="1" source="7DgoJ2IFJHL6SHzVlsKf-88" target="7DgoJ2IFJHL6SHzVlsKf-64" edge="1">
          <mxGeometry relative="1" as="geometry" />
        </mxCell>
        <mxCell id="7DgoJ2IFJHL6SHzVlsKf-91" value="(1,N)" style="edgeLabel;html=1;align=center;verticalAlign=middle;resizable=0;points=[];" parent="7DgoJ2IFJHL6SHzVlsKf-90" vertex="1" connectable="0">
          <mxGeometry x="0.0495" relative="1" as="geometry">
            <mxPoint as="offset" />
          </mxGeometry>
        </mxCell>
        <mxCell id="7DgoJ2IFJHL6SHzVlsKf-104" value="" style="group" parent="1" vertex="1" connectable="0">
          <mxGeometry x="817" y="559" width="352" height="145" as="geometry" />
        </mxCell>
        <mxCell id="7DgoJ2IFJHL6SHzVlsKf-93" value="Entidade" style="rounded=1;arcSize=10;whiteSpace=wrap;html=1;align=center;" parent="7DgoJ2IFJHL6SHzVlsKf-104" vertex="1">
          <mxGeometry x="129" width="100" height="40" as="geometry" />
        </mxCell>
        <mxCell id="7DgoJ2IFJHL6SHzVlsKf-94" value="id_entidade" style="ellipse;whiteSpace=wrap;html=1;align=center;fontStyle=4;" parent="7DgoJ2IFJHL6SHzVlsKf-104" vertex="1">
          <mxGeometry y="39" width="100" height="40" as="geometry" />
        </mxCell>
        <mxCell id="7DgoJ2IFJHL6SHzVlsKf-95" value="id_pessoa" style="ellipse;whiteSpace=wrap;html=1;align=center;fontStyle=4;" parent="7DgoJ2IFJHL6SHzVlsKf-104" vertex="1">
          <mxGeometry x="41" y="79" width="100" height="40" as="geometry" />
        </mxCell>
        <mxCell id="7DgoJ2IFJHL6SHzVlsKf-96" value="id_papel" style="ellipse;whiteSpace=wrap;html=1;align=center;fontStyle=4;" parent="7DgoJ2IFJHL6SHzVlsKf-104" vertex="1">
          <mxGeometry x="85" y="105" width="100" height="40" as="geometry" />
        </mxCell>
        <mxCell id="7DgoJ2IFJHL6SHzVlsKf-97" value="id_perfil" style="ellipse;whiteSpace=wrap;html=1;align=center;fontStyle=4;" parent="7DgoJ2IFJHL6SHzVlsKf-104" vertex="1">
          <mxGeometry x="173" y="105" width="100" height="40" as="geometry" />
        </mxCell>
        <mxCell id="7DgoJ2IFJHL6SHzVlsKf-98" value="id_localizacao" style="ellipse;whiteSpace=wrap;html=1;align=center;fontStyle=4;" parent="7DgoJ2IFJHL6SHzVlsKf-104" vertex="1">
          <mxGeometry x="252" y="90" width="100" height="40" as="geometry" />
        </mxCell>
        <mxCell id="7DgoJ2IFJHL6SHzVlsKf-99" style="edgeStyle=orthogonalEdgeStyle;rounded=0;orthogonalLoop=1;jettySize=auto;html=1;entryX=0;entryY=0.5;entryDx=0;entryDy=0;" parent="7DgoJ2IFJHL6SHzVlsKf-104" source="7DgoJ2IFJHL6SHzVlsKf-94" target="7DgoJ2IFJHL6SHzVlsKf-93" edge="1">
          <mxGeometry relative="1" as="geometry" />
        </mxCell>
        <mxCell id="7DgoJ2IFJHL6SHzVlsKf-100" style="edgeStyle=orthogonalEdgeStyle;rounded=0;orthogonalLoop=1;jettySize=auto;html=1;entryX=0.172;entryY=1.016;entryDx=0;entryDy=0;entryPerimeter=0;" parent="7DgoJ2IFJHL6SHzVlsKf-104" source="7DgoJ2IFJHL6SHzVlsKf-95" target="7DgoJ2IFJHL6SHzVlsKf-93" edge="1">
          <mxGeometry relative="1" as="geometry" />
        </mxCell>
        <mxCell id="7DgoJ2IFJHL6SHzVlsKf-101" style="edgeStyle=orthogonalEdgeStyle;rounded=0;orthogonalLoop=1;jettySize=auto;html=1;entryX=0.25;entryY=1;entryDx=0;entryDy=0;" parent="7DgoJ2IFJHL6SHzVlsKf-104" source="7DgoJ2IFJHL6SHzVlsKf-96" target="7DgoJ2IFJHL6SHzVlsKf-93" edge="1">
          <mxGeometry relative="1" as="geometry" />
        </mxCell>
        <mxCell id="7DgoJ2IFJHL6SHzVlsKf-102" style="edgeStyle=orthogonalEdgeStyle;rounded=0;orthogonalLoop=1;jettySize=auto;html=1;entryX=0.5;entryY=1;entryDx=0;entryDy=0;" parent="7DgoJ2IFJHL6SHzVlsKf-104" source="7DgoJ2IFJHL6SHzVlsKf-97" target="7DgoJ2IFJHL6SHzVlsKf-93" edge="1">
          <mxGeometry relative="1" as="geometry">
            <Array as="points">
              <mxPoint x="268" y="112" />
              <mxPoint x="179" y="112" />
            </Array>
          </mxGeometry>
        </mxCell>
        <mxCell id="7DgoJ2IFJHL6SHzVlsKf-103" style="edgeStyle=orthogonalEdgeStyle;rounded=0;orthogonalLoop=1;jettySize=auto;html=1;entryX=0.75;entryY=1;entryDx=0;entryDy=0;" parent="7DgoJ2IFJHL6SHzVlsKf-104" source="7DgoJ2IFJHL6SHzVlsKf-98" target="7DgoJ2IFJHL6SHzVlsKf-93" edge="1">
          <mxGeometry relative="1" as="geometry">
            <Array as="points">
              <mxPoint x="333" y="79" />
              <mxPoint x="204" y="79" />
            </Array>
          </mxGeometry>
        </mxCell>
        <mxCell id="7DgoJ2IFJHL6SHzVlsKf-109" style="edgeStyle=orthogonalEdgeStyle;rounded=0;orthogonalLoop=1;jettySize=auto;html=1;entryX=1;entryY=0.5;entryDx=0;entryDy=0;" parent="1" source="7DgoJ2IFJHL6SHzVlsKf-105" target="ohtro0tpW4yDw1OSoTFA-1" edge="1">
          <mxGeometry relative="1" as="geometry" />
        </mxCell>
        <mxCell id="7DgoJ2IFJHL6SHzVlsKf-111" value="(1,1)" style="edgeLabel;html=1;align=center;verticalAlign=middle;resizable=0;points=[];" parent="7DgoJ2IFJHL6SHzVlsKf-109" vertex="1" connectable="0">
          <mxGeometry x="0.0194" y="-4" relative="1" as="geometry">
            <mxPoint as="offset" />
          </mxGeometry>
        </mxCell>
        <mxCell id="7DgoJ2IFJHL6SHzVlsKf-105" value="É" style="shape=rhombus;perimeter=rhombusPerimeter;whiteSpace=wrap;html=1;align=center;" parent="1" vertex="1">
          <mxGeometry x="697" y="473" width="120" height="60" as="geometry" />
        </mxCell>
        <mxCell id="7DgoJ2IFJHL6SHzVlsKf-110" style="edgeStyle=orthogonalEdgeStyle;rounded=0;orthogonalLoop=1;jettySize=auto;html=1;entryX=0.416;entryY=0.046;entryDx=0;entryDy=0;entryPerimeter=0;" parent="1" source="7DgoJ2IFJHL6SHzVlsKf-105" target="7DgoJ2IFJHL6SHzVlsKf-93" edge="1">
          <mxGeometry relative="1" as="geometry">
            <Array as="points">
              <mxPoint x="957" y="503" />
              <mxPoint x="957" y="561" />
            </Array>
          </mxGeometry>
        </mxCell>
        <mxCell id="7DgoJ2IFJHL6SHzVlsKf-112" value="(1,1)" style="edgeLabel;html=1;align=center;verticalAlign=middle;resizable=0;points=[];" parent="7DgoJ2IFJHL6SHzVlsKf-110" vertex="1" connectable="0">
          <mxGeometry x="-0.1751" y="1" relative="1" as="geometry">
            <mxPoint as="offset" />
          </mxGeometry>
        </mxCell>
        <mxCell id="7DgoJ2IFJHL6SHzVlsKf-114" style="edgeStyle=orthogonalEdgeStyle;rounded=0;orthogonalLoop=1;jettySize=auto;html=1;entryX=0.5;entryY=0;entryDx=0;entryDy=0;" parent="1" source="7DgoJ2IFJHL6SHzVlsKf-113" target="7DgoJ2IFJHL6SHzVlsKf-64" edge="1">
          <mxGeometry relative="1" as="geometry" />
        </mxCell>
        <mxCell id="7DgoJ2IFJHL6SHzVlsKf-116" value="(1,1)" style="edgeLabel;html=1;align=center;verticalAlign=middle;resizable=0;points=[];" parent="7DgoJ2IFJHL6SHzVlsKf-114" vertex="1" connectable="0">
          <mxGeometry x="-0.3561" y="3" relative="1" as="geometry">
            <mxPoint as="offset" />
          </mxGeometry>
        </mxCell>
        <mxCell id="7DgoJ2IFJHL6SHzVlsKf-115" style="edgeStyle=orthogonalEdgeStyle;rounded=0;orthogonalLoop=1;jettySize=auto;html=1;entryX=0;entryY=0;entryDx=0;entryDy=0;" parent="1" source="7DgoJ2IFJHL6SHzVlsKf-113" target="7DgoJ2IFJHL6SHzVlsKf-93" edge="1">
          <mxGeometry relative="1" as="geometry">
            <Array as="points">
              <mxPoint x="803" y="632" />
              <mxPoint x="803" y="539" />
              <mxPoint x="946" y="539" />
            </Array>
          </mxGeometry>
        </mxCell>
        <mxCell id="7DgoJ2IFJHL6SHzVlsKf-117" value="(1,1)" style="edgeLabel;html=1;align=center;verticalAlign=middle;resizable=0;points=[];" parent="7DgoJ2IFJHL6SHzVlsKf-115" vertex="1" connectable="0">
          <mxGeometry x="0.2646" y="-3" relative="1" as="geometry">
            <mxPoint as="offset" />
          </mxGeometry>
        </mxCell>
        <mxCell id="7DgoJ2IFJHL6SHzVlsKf-113" value="Possui" style="shape=rhombus;perimeter=rhombusPerimeter;whiteSpace=wrap;html=1;align=center;" parent="1" vertex="1">
          <mxGeometry x="627" y="601.5" width="120" height="60" as="geometry" />
        </mxCell>
        <mxCell id="7DgoJ2IFJHL6SHzVlsKf-119" style="edgeStyle=orthogonalEdgeStyle;rounded=0;orthogonalLoop=1;jettySize=auto;html=1;entryX=0.5;entryY=0;entryDx=0;entryDy=0;" parent="1" source="7DgoJ2IFJHL6SHzVlsKf-118" target="7DgoJ2IFJHL6SHzVlsKf-93" edge="1">
          <mxGeometry relative="1" as="geometry" />
        </mxCell>
        <mxCell id="7DgoJ2IFJHL6SHzVlsKf-122" value="(1,1)" style="edgeLabel;html=1;align=center;verticalAlign=middle;resizable=0;points=[];" parent="7DgoJ2IFJHL6SHzVlsKf-119" vertex="1" connectable="0">
          <mxGeometry x="0.3622" y="4" relative="1" as="geometry">
            <mxPoint as="offset" />
          </mxGeometry>
        </mxCell>
        <mxCell id="7DgoJ2IFJHL6SHzVlsKf-120" style="edgeStyle=orthogonalEdgeStyle;rounded=0;orthogonalLoop=1;jettySize=auto;html=1;entryX=0.5;entryY=1;entryDx=0;entryDy=0;" parent="1" source="7DgoJ2IFJHL6SHzVlsKf-118" target="7DgoJ2IFJHL6SHzVlsKf-30" edge="1">
          <mxGeometry relative="1" as="geometry" />
        </mxCell>
        <mxCell id="7DgoJ2IFJHL6SHzVlsKf-121" value="(1,N)" style="edgeLabel;html=1;align=center;verticalAlign=middle;resizable=0;points=[];" parent="7DgoJ2IFJHL6SHzVlsKf-120" vertex="1" connectable="0">
          <mxGeometry x="-0.2965" y="-2" relative="1" as="geometry">
            <mxPoint as="offset" />
          </mxGeometry>
        </mxCell>
        <mxCell id="7DgoJ2IFJHL6SHzVlsKf-118" value="Possui" style="shape=rhombus;perimeter=rhombusPerimeter;whiteSpace=wrap;html=1;align=center;" parent="1" vertex="1">
          <mxGeometry x="807" y="347" width="120" height="60" as="geometry" />
        </mxCell>
        <mxCell id="7DgoJ2IFJHL6SHzVlsKf-123" value="" style="group" parent="1" vertex="1" connectable="0">
          <mxGeometry x="1155" y="198" width="232" height="95" as="geometry" />
        </mxCell>
        <mxCell id="7DgoJ2IFJHL6SHzVlsKf-124" value="ONG" style="rounded=1;arcSize=10;whiteSpace=wrap;html=1;align=center;movable=1;resizable=1;rotatable=1;deletable=1;editable=1;locked=0;connectable=1;" parent="7DgoJ2IFJHL6SHzVlsKf-123" vertex="1">
          <mxGeometry x="132" y="22" width="100" height="40" as="geometry" />
        </mxCell>
        <mxCell id="7DgoJ2IFJHL6SHzVlsKf-125" value="id_ong" style="ellipse;whiteSpace=wrap;html=1;align=center;fontStyle=4;movable=1;resizable=1;rotatable=1;deletable=1;editable=1;locked=0;connectable=1;" parent="7DgoJ2IFJHL6SHzVlsKf-123" vertex="1">
          <mxGeometry width="100" height="40" as="geometry" />
        </mxCell>
        <mxCell id="7DgoJ2IFJHL6SHzVlsKf-126" value="nome" style="ellipse;whiteSpace=wrap;html=1;align=center;movable=1;resizable=1;rotatable=1;deletable=1;editable=1;locked=0;connectable=1;" parent="7DgoJ2IFJHL6SHzVlsKf-123" vertex="1">
          <mxGeometry y="55" width="100" height="40" as="geometry" />
        </mxCell>
        <mxCell id="7DgoJ2IFJHL6SHzVlsKf-127" style="edgeStyle=orthogonalEdgeStyle;rounded=0;orthogonalLoop=1;jettySize=auto;html=1;entryX=0;entryY=0.5;entryDx=0;entryDy=0;" parent="7DgoJ2IFJHL6SHzVlsKf-123" source="7DgoJ2IFJHL6SHzVlsKf-125" target="7DgoJ2IFJHL6SHzVlsKf-124" edge="1">
          <mxGeometry relative="1" as="geometry" />
        </mxCell>
        <mxCell id="7DgoJ2IFJHL6SHzVlsKf-128" style="edgeStyle=orthogonalEdgeStyle;rounded=0;orthogonalLoop=1;jettySize=auto;html=1;entryX=0;entryY=0.75;entryDx=0;entryDy=0;" parent="7DgoJ2IFJHL6SHzVlsKf-123" source="7DgoJ2IFJHL6SHzVlsKf-126" target="7DgoJ2IFJHL6SHzVlsKf-124" edge="1">
          <mxGeometry relative="1" as="geometry" />
        </mxCell>
        <mxCell id="7DgoJ2IFJHL6SHzVlsKf-147" value="" style="group" parent="1" vertex="1" connectable="0">
          <mxGeometry x="1573" y="231" width="265" height="117" as="geometry" />
        </mxCell>
        <mxCell id="7DgoJ2IFJHL6SHzVlsKf-143" value="id_representante" style="ellipse;whiteSpace=wrap;html=1;align=center;movable=1;resizable=1;rotatable=1;deletable=1;editable=1;locked=0;connectable=1;" parent="7DgoJ2IFJHL6SHzVlsKf-147" vertex="1">
          <mxGeometry x="165" y="77" width="100" height="40" as="geometry" />
        </mxCell>
        <mxCell id="7DgoJ2IFJHL6SHzVlsKf-142" value="id_recomendacao" style="ellipse;whiteSpace=wrap;html=1;align=center;fontStyle=4;movable=1;resizable=1;rotatable=1;deletable=1;editable=1;locked=0;connectable=1;" parent="7DgoJ2IFJHL6SHzVlsKf-147" vertex="1">
          <mxGeometry x="143" width="100" height="40" as="geometry" />
        </mxCell>
        <mxCell id="7DgoJ2IFJHL6SHzVlsKf-141" value="Recomendacao" style="rounded=1;arcSize=10;whiteSpace=wrap;html=1;align=center;movable=1;resizable=1;rotatable=1;deletable=1;editable=1;locked=0;connectable=1;" parent="7DgoJ2IFJHL6SHzVlsKf-147" vertex="1">
          <mxGeometry y="55" width="100" height="40" as="geometry" />
        </mxCell>
        <mxCell id="7DgoJ2IFJHL6SHzVlsKf-144" style="edgeStyle=orthogonalEdgeStyle;rounded=0;orthogonalLoop=1;jettySize=auto;html=1;entryX=1;entryY=0.25;entryDx=0;entryDy=0;" parent="7DgoJ2IFJHL6SHzVlsKf-147" source="7DgoJ2IFJHL6SHzVlsKf-142" target="7DgoJ2IFJHL6SHzVlsKf-141" edge="1">
          <mxGeometry relative="1" as="geometry" />
        </mxCell>
        <mxCell id="7DgoJ2IFJHL6SHzVlsKf-145" style="edgeStyle=orthogonalEdgeStyle;rounded=0;orthogonalLoop=1;jettySize=auto;html=1;entryX=1;entryY=0.5;entryDx=0;entryDy=0;" parent="7DgoJ2IFJHL6SHzVlsKf-147" source="7DgoJ2IFJHL6SHzVlsKf-143" target="7DgoJ2IFJHL6SHzVlsKf-141" edge="1">
          <mxGeometry relative="1" as="geometry" />
        </mxCell>
        <mxCell id="7DgoJ2IFJHL6SHzVlsKf-150" style="edgeStyle=orthogonalEdgeStyle;rounded=0;orthogonalLoop=1;jettySize=auto;html=1;entryX=1;entryY=0.5;entryDx=0;entryDy=0;" parent="1" source="7DgoJ2IFJHL6SHzVlsKf-148" target="7DgoJ2IFJHL6SHzVlsKf-124" edge="1">
          <mxGeometry relative="1" as="geometry" />
        </mxCell>
        <mxCell id="7DgoJ2IFJHL6SHzVlsKf-152" value="(1,N)" style="edgeLabel;html=1;align=center;verticalAlign=middle;resizable=0;points=[];" parent="7DgoJ2IFJHL6SHzVlsKf-150" vertex="1" connectable="0">
          <mxGeometry x="0.0128" y="-2" relative="1" as="geometry">
            <mxPoint as="offset" />
          </mxGeometry>
        </mxCell>
        <mxCell id="7DgoJ2IFJHL6SHzVlsKf-148" value="Possui" style="shape=rhombus;perimeter=rhombusPerimeter;whiteSpace=wrap;html=1;align=center;" parent="1" vertex="1">
          <mxGeometry x="1441" y="215.5" width="120" height="60" as="geometry" />
        </mxCell>
        <mxCell id="7DgoJ2IFJHL6SHzVlsKf-149" style="edgeStyle=orthogonalEdgeStyle;rounded=0;orthogonalLoop=1;jettySize=auto;html=1;entryX=1;entryY=0.5;entryDx=0;entryDy=0;" parent="1" source="7DgoJ2IFJHL6SHzVlsKf-141" target="7DgoJ2IFJHL6SHzVlsKf-148" edge="1">
          <mxGeometry relative="1" as="geometry" />
        </mxCell>
        <mxCell id="7DgoJ2IFJHL6SHzVlsKf-151" value="(1,N)" style="edgeLabel;html=1;align=center;verticalAlign=middle;resizable=0;points=[];" parent="7DgoJ2IFJHL6SHzVlsKf-149" vertex="1" connectable="0">
          <mxGeometry x="-0.3397" relative="1" as="geometry">
            <mxPoint as="offset" />
          </mxGeometry>
        </mxCell>
        <mxCell id="7DgoJ2IFJHL6SHzVlsKf-154" style="edgeStyle=orthogonalEdgeStyle;rounded=0;orthogonalLoop=1;jettySize=auto;html=1;entryX=0;entryY=0.5;entryDx=0;entryDy=0;" parent="1" source="7DgoJ2IFJHL6SHzVlsKf-153" target="7DgoJ2IFJHL6SHzVlsKf-130" edge="1">
          <mxGeometry relative="1" as="geometry">
            <Array as="points">
              <mxPoint x="1232" y="462" />
              <mxPoint x="1364" y="462" />
            </Array>
          </mxGeometry>
        </mxCell>
        <mxCell id="7DgoJ2IFJHL6SHzVlsKf-157" value="(1,N)" style="edgeLabel;html=1;align=center;verticalAlign=middle;resizable=0;points=[];" parent="7DgoJ2IFJHL6SHzVlsKf-154" vertex="1" connectable="0">
          <mxGeometry x="0.7278" y="1" relative="1" as="geometry">
            <mxPoint as="offset" />
          </mxGeometry>
        </mxCell>
        <mxCell id="7DgoJ2IFJHL6SHzVlsKf-153" value="Possui" style="shape=rhombus;perimeter=rhombusPerimeter;whiteSpace=wrap;html=1;align=center;" parent="1" vertex="1">
          <mxGeometry x="1177" y="715" width="120" height="60" as="geometry" />
        </mxCell>
        <mxCell id="7DgoJ2IFJHL6SHzVlsKf-155" style="edgeStyle=orthogonalEdgeStyle;rounded=0;orthogonalLoop=1;jettySize=auto;html=1;entryX=0.899;entryY=0.068;entryDx=0;entryDy=0;entryPerimeter=0;" parent="1" source="7DgoJ2IFJHL6SHzVlsKf-153" target="7DgoJ2IFJHL6SHzVlsKf-64" edge="1">
          <mxGeometry relative="1" as="geometry" />
        </mxCell>
        <mxCell id="7DgoJ2IFJHL6SHzVlsKf-156" value="(1,N)" style="edgeLabel;html=1;align=center;verticalAlign=middle;resizable=0;points=[];" parent="7DgoJ2IFJHL6SHzVlsKf-155" vertex="1" connectable="0">
          <mxGeometry x="-0.3915" y="4" relative="1" as="geometry">
            <mxPoint x="1" as="offset" />
          </mxGeometry>
        </mxCell>
        <mxCell id="7DgoJ2IFJHL6SHzVlsKf-158" value="" style="group" parent="1" vertex="1" connectable="0">
          <mxGeometry x="1210" y="440" width="374" height="150" as="geometry" />
        </mxCell>
        <mxCell id="7DgoJ2IFJHL6SHzVlsKf-139" value="" style="group" parent="7DgoJ2IFJHL6SHzVlsKf-158" vertex="1" connectable="0">
          <mxGeometry width="298" height="150" as="geometry" />
        </mxCell>
        <mxCell id="7DgoJ2IFJHL6SHzVlsKf-129" value="" style="group" parent="7DgoJ2IFJHL6SHzVlsKf-139" vertex="1" connectable="0">
          <mxGeometry x="22" y="-11" width="232" height="95" as="geometry" />
        </mxCell>
        <mxCell id="7DgoJ2IFJHL6SHzVlsKf-130" value="Campanha" style="rounded=1;arcSize=10;whiteSpace=wrap;html=1;align=center;movable=1;resizable=1;rotatable=1;deletable=1;editable=1;locked=0;connectable=1;" parent="7DgoJ2IFJHL6SHzVlsKf-129" vertex="1">
          <mxGeometry x="132" y="22" width="100" height="40" as="geometry" />
        </mxCell>
        <mxCell id="7DgoJ2IFJHL6SHzVlsKf-132" value="nome" style="ellipse;whiteSpace=wrap;html=1;align=center;movable=1;resizable=1;rotatable=1;deletable=1;editable=1;locked=0;connectable=1;" parent="7DgoJ2IFJHL6SHzVlsKf-139" vertex="1">
          <mxGeometry x="154" y="121" width="100" height="40" as="geometry" />
        </mxCell>
        <mxCell id="7DgoJ2IFJHL6SHzVlsKf-134" style="edgeStyle=orthogonalEdgeStyle;rounded=0;orthogonalLoop=1;jettySize=auto;html=1;entryX=0.178;entryY=1.012;entryDx=0;entryDy=0;entryPerimeter=0;" parent="7DgoJ2IFJHL6SHzVlsKf-139" source="7DgoJ2IFJHL6SHzVlsKf-132" target="7DgoJ2IFJHL6SHzVlsKf-130" edge="1">
          <mxGeometry relative="1" as="geometry" />
        </mxCell>
        <mxCell id="7DgoJ2IFJHL6SHzVlsKf-131" value="id_campanha" style="ellipse;whiteSpace=wrap;html=1;align=center;fontStyle=4;movable=1;resizable=1;rotatable=1;deletable=1;editable=1;locked=0;connectable=1;" parent="7DgoJ2IFJHL6SHzVlsKf-139" vertex="1">
          <mxGeometry x="54" y="110" width="100" height="40" as="geometry" />
        </mxCell>
        <mxCell id="7DgoJ2IFJHL6SHzVlsKf-133" style="edgeStyle=orthogonalEdgeStyle;rounded=0;orthogonalLoop=1;jettySize=auto;html=1;entryX=0.07;entryY=1.006;entryDx=0;entryDy=0;entryPerimeter=0;" parent="7DgoJ2IFJHL6SHzVlsKf-139" source="7DgoJ2IFJHL6SHzVlsKf-131" target="7DgoJ2IFJHL6SHzVlsKf-130" edge="1">
          <mxGeometry relative="1" as="geometry">
            <Array as="points">
              <mxPoint x="154" y="81" />
              <mxPoint x="161" y="81" />
            </Array>
          </mxGeometry>
        </mxCell>
        <mxCell id="7DgoJ2IFJHL6SHzVlsKf-137" value="id_ong" style="ellipse;whiteSpace=wrap;html=1;align=center;fontStyle=4;movable=1;resizable=1;rotatable=1;deletable=1;editable=1;locked=0;connectable=1;" parent="7DgoJ2IFJHL6SHzVlsKf-158" vertex="1">
          <mxGeometry x="274" y="62" width="100" height="40" as="geometry" />
        </mxCell>
        <mxCell id="7DgoJ2IFJHL6SHzVlsKf-135" value="descricao" style="ellipse;whiteSpace=wrap;html=1;align=center;movable=1;resizable=1;rotatable=1;deletable=1;editable=1;locked=0;connectable=1;" parent="7DgoJ2IFJHL6SHzVlsKf-158" vertex="1">
          <mxGeometry x="254" y="110" width="100" height="40" as="geometry" />
        </mxCell>
        <mxCell id="7DgoJ2IFJHL6SHzVlsKf-138" style="edgeStyle=orthogonalEdgeStyle;rounded=0;orthogonalLoop=1;jettySize=auto;html=1;entryX=0.894;entryY=0.982;entryDx=0;entryDy=0;entryPerimeter=0;" parent="7DgoJ2IFJHL6SHzVlsKf-158" source="7DgoJ2IFJHL6SHzVlsKf-137" target="7DgoJ2IFJHL6SHzVlsKf-130" edge="1">
          <mxGeometry relative="1" as="geometry" />
        </mxCell>
        <mxCell id="7DgoJ2IFJHL6SHzVlsKf-136" style="edgeStyle=orthogonalEdgeStyle;rounded=0;orthogonalLoop=1;jettySize=auto;html=1;entryX=0.483;entryY=0.95;entryDx=0;entryDy=0;entryPerimeter=0;" parent="7DgoJ2IFJHL6SHzVlsKf-158" source="7DgoJ2IFJHL6SHzVlsKf-135" target="7DgoJ2IFJHL6SHzVlsKf-130" edge="1">
          <mxGeometry relative="1" as="geometry">
            <Array as="points">
              <mxPoint x="253" y="130" />
              <mxPoint x="253" y="86" />
              <mxPoint x="198" y="86" />
              <mxPoint x="198" y="66" />
              <mxPoint x="202" y="66" />
            </Array>
          </mxGeometry>
        </mxCell>
        <mxCell id="7DgoJ2IFJHL6SHzVlsKf-161" style="edgeStyle=orthogonalEdgeStyle;rounded=0;orthogonalLoop=1;jettySize=auto;html=1;entryX=0.5;entryY=1;entryDx=0;entryDy=0;" parent="1" source="7DgoJ2IFJHL6SHzVlsKf-159" target="7DgoJ2IFJHL6SHzVlsKf-124" edge="1">
          <mxGeometry relative="1" as="geometry" />
        </mxCell>
        <mxCell id="7DgoJ2IFJHL6SHzVlsKf-163" value="(1,1)" style="edgeLabel;html=1;align=center;verticalAlign=middle;resizable=0;points=[];" parent="7DgoJ2IFJHL6SHzVlsKf-161" vertex="1" connectable="0">
          <mxGeometry x="0.0801" y="-1" relative="1" as="geometry">
            <mxPoint as="offset" />
          </mxGeometry>
        </mxCell>
        <mxCell id="7DgoJ2IFJHL6SHzVlsKf-159" value="Abre" style="shape=rhombus;perimeter=rhombusPerimeter;whiteSpace=wrap;html=1;align=center;" parent="1" vertex="1">
          <mxGeometry x="1337" y="330" width="120" height="60" as="geometry" />
        </mxCell>
        <mxCell id="7DgoJ2IFJHL6SHzVlsKf-160" style="edgeStyle=orthogonalEdgeStyle;rounded=0;orthogonalLoop=1;jettySize=auto;html=1;entryX=0.5;entryY=1;entryDx=0;entryDy=0;" parent="1" source="7DgoJ2IFJHL6SHzVlsKf-130" target="7DgoJ2IFJHL6SHzVlsKf-159" edge="1">
          <mxGeometry relative="1" as="geometry" />
        </mxCell>
        <mxCell id="7DgoJ2IFJHL6SHzVlsKf-162" value="(1,N)" style="edgeLabel;html=1;align=center;verticalAlign=middle;resizable=0;points=[];" parent="7DgoJ2IFJHL6SHzVlsKf-160" vertex="1" connectable="0">
          <mxGeometry x="-0.4684" y="1" relative="1" as="geometry">
            <mxPoint as="offset" />
          </mxGeometry>
        </mxCell>
        <mxCell id="nhqi5TZPJqlpEU0cdXb3-9" value="" style="group" vertex="1" connectable="0" parent="1">
          <mxGeometry x="858" y="-100" width="243" height="131" as="geometry" />
        </mxCell>
        <mxCell id="nhqi5TZPJqlpEU0cdXb3-1" value="" style="group" vertex="1" connectable="0" parent="nhqi5TZPJqlpEU0cdXb3-9">
          <mxGeometry x="11" y="29" width="232" height="102" as="geometry" />
        </mxCell>
        <mxCell id="nhqi5TZPJqlpEU0cdXb3-2" value="Pedido_Afiliacao" style="rounded=1;arcSize=10;whiteSpace=wrap;html=1;align=center;movable=1;resizable=1;rotatable=1;deletable=1;editable=1;locked=0;connectable=1;" vertex="1" parent="nhqi5TZPJqlpEU0cdXb3-1">
          <mxGeometry x="132" y="22" width="100" height="40" as="geometry" />
        </mxCell>
        <mxCell id="nhqi5TZPJqlpEU0cdXb3-4" value="status" style="ellipse;whiteSpace=wrap;html=1;align=center;movable=1;resizable=1;rotatable=1;deletable=1;editable=1;locked=0;connectable=1;" vertex="1" parent="nhqi5TZPJqlpEU0cdXb3-1">
          <mxGeometry x="-11" y="11" width="100" height="40" as="geometry" />
        </mxCell>
        <mxCell id="nhqi5TZPJqlpEU0cdXb3-6" style="edgeStyle=orthogonalEdgeStyle;rounded=0;orthogonalLoop=1;jettySize=auto;html=1;entryX=0;entryY=0.75;entryDx=0;entryDy=0;" edge="1" parent="nhqi5TZPJqlpEU0cdXb3-1" source="nhqi5TZPJqlpEU0cdXb3-4" target="nhqi5TZPJqlpEU0cdXb3-2">
          <mxGeometry relative="1" as="geometry" />
        </mxCell>
        <mxCell id="nhqi5TZPJqlpEU0cdXb3-7" value="data" style="ellipse;whiteSpace=wrap;html=1;align=center;movable=1;resizable=1;rotatable=1;deletable=1;editable=1;locked=0;connectable=1;" vertex="1" parent="nhqi5TZPJqlpEU0cdXb3-1">
          <mxGeometry x="-11" y="62" width="100" height="40" as="geometry" />
        </mxCell>
        <mxCell id="nhqi5TZPJqlpEU0cdXb3-8" style="edgeStyle=orthogonalEdgeStyle;rounded=0;orthogonalLoop=1;jettySize=auto;html=1;entryX=0;entryY=0.75;entryDx=0;entryDy=0;" edge="1" parent="nhqi5TZPJqlpEU0cdXb3-1" source="nhqi5TZPJqlpEU0cdXb3-7" target="nhqi5TZPJqlpEU0cdXb3-2">
          <mxGeometry relative="1" as="geometry" />
        </mxCell>
        <mxCell id="nhqi5TZPJqlpEU0cdXb3-3" value="id_pedido" style="ellipse;whiteSpace=wrap;html=1;align=center;fontStyle=4;movable=1;resizable=1;rotatable=1;deletable=1;editable=1;locked=0;connectable=1;" vertex="1" parent="nhqi5TZPJqlpEU0cdXb3-9">
          <mxGeometry width="100" height="40" as="geometry" />
        </mxCell>
        <mxCell id="nhqi5TZPJqlpEU0cdXb3-5" style="edgeStyle=orthogonalEdgeStyle;rounded=0;orthogonalLoop=1;jettySize=auto;html=1;entryX=0;entryY=0.25;entryDx=0;entryDy=0;" edge="1" parent="nhqi5TZPJqlpEU0cdXb3-9" source="nhqi5TZPJqlpEU0cdXb3-3" target="nhqi5TZPJqlpEU0cdXb3-2">
          <mxGeometry relative="1" as="geometry" />
        </mxCell>
        <mxCell id="nhqi5TZPJqlpEU0cdXb3-10" value="" style="group" vertex="1" connectable="0" parent="1">
          <mxGeometry x="927" y="99" width="243" height="131" as="geometry" />
        </mxCell>
        <mxCell id="nhqi5TZPJqlpEU0cdXb3-11" value="" style="group" vertex="1" connectable="0" parent="nhqi5TZPJqlpEU0cdXb3-10">
          <mxGeometry x="11" y="29" width="232" height="102" as="geometry" />
        </mxCell>
        <mxCell id="nhqi5TZPJqlpEU0cdXb3-12" value="CertidaoCNPJ" style="rounded=1;arcSize=10;whiteSpace=wrap;html=1;align=center;movable=1;resizable=1;rotatable=1;deletable=1;editable=1;locked=0;connectable=1;" vertex="1" parent="nhqi5TZPJqlpEU0cdXb3-11">
          <mxGeometry x="132" y="22" width="100" height="40" as="geometry" />
        </mxCell>
        <mxCell id="nhqi5TZPJqlpEU0cdXb3-13" value="nomeArquivo" style="ellipse;whiteSpace=wrap;html=1;align=center;movable=1;resizable=1;rotatable=1;deletable=1;editable=1;locked=0;connectable=1;" vertex="1" parent="nhqi5TZPJqlpEU0cdXb3-11">
          <mxGeometry x="-11" y="11" width="100" height="40" as="geometry" />
        </mxCell>
        <mxCell id="nhqi5TZPJqlpEU0cdXb3-14" style="edgeStyle=orthogonalEdgeStyle;rounded=0;orthogonalLoop=1;jettySize=auto;html=1;entryX=0;entryY=0.75;entryDx=0;entryDy=0;" edge="1" parent="nhqi5TZPJqlpEU0cdXb3-11" source="nhqi5TZPJqlpEU0cdXb3-13" target="nhqi5TZPJqlpEU0cdXb3-12">
          <mxGeometry relative="1" as="geometry" />
        </mxCell>
        <mxCell id="nhqi5TZPJqlpEU0cdXb3-15" value="tipo" style="ellipse;whiteSpace=wrap;html=1;align=center;movable=1;resizable=1;rotatable=1;deletable=1;editable=1;locked=0;connectable=1;" vertex="1" parent="nhqi5TZPJqlpEU0cdXb3-11">
          <mxGeometry x="-11" y="62" width="100" height="40" as="geometry" />
        </mxCell>
        <mxCell id="nhqi5TZPJqlpEU0cdXb3-16" style="edgeStyle=orthogonalEdgeStyle;rounded=0;orthogonalLoop=1;jettySize=auto;html=1;entryX=0;entryY=0.75;entryDx=0;entryDy=0;" edge="1" parent="nhqi5TZPJqlpEU0cdXb3-11" source="nhqi5TZPJqlpEU0cdXb3-15" target="nhqi5TZPJqlpEU0cdXb3-12">
          <mxGeometry relative="1" as="geometry" />
        </mxCell>
        <mxCell id="nhqi5TZPJqlpEU0cdXb3-17" value="id_certidao" style="ellipse;whiteSpace=wrap;html=1;align=center;fontStyle=4;movable=1;resizable=1;rotatable=1;deletable=1;editable=1;locked=0;connectable=1;" vertex="1" parent="nhqi5TZPJqlpEU0cdXb3-10">
          <mxGeometry width="100" height="40" as="geometry" />
        </mxCell>
        <mxCell id="nhqi5TZPJqlpEU0cdXb3-18" style="edgeStyle=orthogonalEdgeStyle;rounded=0;orthogonalLoop=1;jettySize=auto;html=1;entryX=0;entryY=0.25;entryDx=0;entryDy=0;" edge="1" parent="nhqi5TZPJqlpEU0cdXb3-10" source="nhqi5TZPJqlpEU0cdXb3-17" target="nhqi5TZPJqlpEU0cdXb3-12">
          <mxGeometry relative="1" as="geometry" />
        </mxCell>
        <mxCell id="nhqi5TZPJqlpEU0cdXb3-29" value="" style="group" vertex="1" connectable="0" parent="1">
          <mxGeometry x="1584" width="243" height="131" as="geometry" />
        </mxCell>
        <mxCell id="nhqi5TZPJqlpEU0cdXb3-30" value="" style="group" vertex="1" connectable="0" parent="nhqi5TZPJqlpEU0cdXb3-29">
          <mxGeometry x="11" y="29" width="232" height="102" as="geometry" />
        </mxCell>
        <mxCell id="nhqi5TZPJqlpEU0cdXb3-31" value="CondicaoTermo" style="rounded=1;arcSize=10;whiteSpace=wrap;html=1;align=center;movable=1;resizable=1;rotatable=1;deletable=1;editable=1;locked=0;connectable=1;" vertex="1" parent="nhqi5TZPJqlpEU0cdXb3-30">
          <mxGeometry x="132" y="22" width="100" height="40" as="geometry" />
        </mxCell>
        <mxCell id="nhqi5TZPJqlpEU0cdXb3-32" value="texto" style="ellipse;whiteSpace=wrap;html=1;align=center;movable=1;resizable=1;rotatable=1;deletable=1;editable=1;locked=0;connectable=1;" vertex="1" parent="nhqi5TZPJqlpEU0cdXb3-30">
          <mxGeometry x="-11" y="11" width="100" height="40" as="geometry" />
        </mxCell>
        <mxCell id="nhqi5TZPJqlpEU0cdXb3-33" style="edgeStyle=orthogonalEdgeStyle;rounded=0;orthogonalLoop=1;jettySize=auto;html=1;entryX=0;entryY=0.75;entryDx=0;entryDy=0;" edge="1" parent="nhqi5TZPJqlpEU0cdXb3-30" source="nhqi5TZPJqlpEU0cdXb3-32" target="nhqi5TZPJqlpEU0cdXb3-31">
          <mxGeometry relative="1" as="geometry" />
        </mxCell>
        <mxCell id="nhqi5TZPJqlpEU0cdXb3-34" value="&lt;u&gt;id_termo&lt;/u&gt;" style="ellipse;whiteSpace=wrap;html=1;align=center;movable=1;resizable=1;rotatable=1;deletable=1;editable=1;locked=0;connectable=1;" vertex="1" parent="nhqi5TZPJqlpEU0cdXb3-30">
          <mxGeometry x="-11" y="62" width="100" height="40" as="geometry" />
        </mxCell>
        <mxCell id="nhqi5TZPJqlpEU0cdXb3-35" style="edgeStyle=orthogonalEdgeStyle;rounded=0;orthogonalLoop=1;jettySize=auto;html=1;entryX=0;entryY=0.75;entryDx=0;entryDy=0;" edge="1" parent="nhqi5TZPJqlpEU0cdXb3-30" source="nhqi5TZPJqlpEU0cdXb3-34" target="nhqi5TZPJqlpEU0cdXb3-31">
          <mxGeometry relative="1" as="geometry" />
        </mxCell>
        <mxCell id="nhqi5TZPJqlpEU0cdXb3-36" value="id_condicao" style="ellipse;whiteSpace=wrap;html=1;align=center;fontStyle=4;movable=1;resizable=1;rotatable=1;deletable=1;editable=1;locked=0;connectable=1;" vertex="1" parent="nhqi5TZPJqlpEU0cdXb3-29">
          <mxGeometry width="100" height="40" as="geometry" />
        </mxCell>
        <mxCell id="nhqi5TZPJqlpEU0cdXb3-37" style="edgeStyle=orthogonalEdgeStyle;rounded=0;orthogonalLoop=1;jettySize=auto;html=1;entryX=0;entryY=0.25;entryDx=0;entryDy=0;" edge="1" parent="nhqi5TZPJqlpEU0cdXb3-29" source="nhqi5TZPJqlpEU0cdXb3-36" target="nhqi5TZPJqlpEU0cdXb3-31">
          <mxGeometry relative="1" as="geometry" />
        </mxCell>
        <mxCell id="nhqi5TZPJqlpEU0cdXb3-38" value="" style="group" vertex="1" connectable="0" parent="1">
          <mxGeometry x="1023" y="-283" width="275" height="135" as="geometry" />
        </mxCell>
        <mxCell id="nhqi5TZPJqlpEU0cdXb3-39" value="" style="group" vertex="1" connectable="0" parent="nhqi5TZPJqlpEU0cdXb3-38">
          <mxGeometry x="11" y="29" width="264" height="106" as="geometry" />
        </mxCell>
        <mxCell id="nhqi5TZPJqlpEU0cdXb3-47" value="" style="group" vertex="1" connectable="0" parent="nhqi5TZPJqlpEU0cdXb3-39">
          <mxGeometry y="11" width="264" height="91" as="geometry" />
        </mxCell>
        <mxCell id="nhqi5TZPJqlpEU0cdXb3-40" value="" style="group" vertex="1" connectable="0" parent="nhqi5TZPJqlpEU0cdXb3-47">
          <mxGeometry width="264" height="51" as="geometry" />
        </mxCell>
        <mxCell id="nhqi5TZPJqlpEU0cdXb3-41" value="Aceite" style="rounded=1;arcSize=10;whiteSpace=wrap;html=1;align=center;movable=1;resizable=1;rotatable=1;deletable=1;editable=1;locked=0;connectable=1;" vertex="1" parent="nhqi5TZPJqlpEU0cdXb3-40">
          <mxGeometry x="132" y="11" width="132" height="40" as="geometry" />
        </mxCell>
        <mxCell id="nhqi5TZPJqlpEU0cdXb3-42" value="id_aceite&lt;span style=&quot;color: rgba(0, 0, 0, 0); font-family: monospace; font-size: 0px; text-align: start; text-wrap-mode: nowrap;&quot;&gt;%3CmxGraphModel%3E%3Croot%3E%3CmxCell%20id%3D%220%22%2F%3E%3CmxCell%20id%3D%221%22%20parent%3D%220%22%2F%3E%3CmxCell%20id%3D%222%22%20value%3D%22%22%20style%3D%22group%22%20vertex%3D%221%22%20connectable%3D%220%22%20parent%3D%221%22%3E%3CmxGeometry%20x%3D%221210%22%20y%3D%2219%22%20width%3D%22275%22%20height%3D%22131%22%20as%3D%22geometry%22%2F%3E%3C%2FmxCell%3E%3CmxCell%20id%3D%223%22%20value%3D%22%22%20style%3D%22group%22%20vertex%3D%221%22%20connectable%3D%220%22%20parent%3D%222%22%3E%3CmxGeometry%20x%3D%2211%22%20y%3D%2229%22%20width%3D%22264%22%20height%3D%22102%22%20as%3D%22geometry%22%2F%3E%3C%2FmxCell%3E%3CmxCell%20id%3D%224%22%20value%3D%22%22%20style%3D%22group%22%20vertex%3D%221%22%20connectable%3D%220%22%20parent%3D%223%22%3E%3CmxGeometry%20y%3D%2211%22%20width%3D%22264%22%20height%3D%2251%22%20as%3D%22geometry%22%2F%3E%3C%2FmxCell%3E%3CmxCell%20id%3D%225%22%20value%3D%22TermoDeCompromisso%22%20style%3D%22rounded%3D1%3BarcSize%3D10%3BwhiteSpace%3Dwrap%3Bhtml%3D1%3Balign%3Dcenter%3Bmovable%3D1%3Bresizable%3D1%3Brotatable%3D1%3Bdeletable%3D1%3Beditable%3D1%3Blocked%3D0%3Bconnectable%3D1%3B%22%20vertex%3D%221%22%20parent%3D%224%22%3E%3CmxGeometry%20x%3D%22132%22%20y%3D%2211%22%20width%3D%22132%22%20height%3D%2240%22%20as%3D%22geometry%22%2F%3E%3C%2FmxCell%3E%3CmxCell%20id%3D%226%22%20value%3D%22id_termo%22%20style%3D%22ellipse%3BwhiteSpace%3Dwrap%3Bhtml%3D1%3Balign%3Dcenter%3BfontStyle%3D4%3Bmovable%3D1%3Bresizable%3D1%3Brotatable%3D1%3Bdeletable%3D1%3Beditable%3D1%3Blocked%3D0%3Bconnectable%3D1%3B%22%20vertex%3D%221%22%20parent%3D%224%22%3E%3CmxGeometry%20width%3D%22100%22%20height%3D%2240%22%20as%3D%22geometry%22%2F%3E%3C%2FmxCell%3E%3CmxCell%20id%3D%227%22%20style%3D%22edgeStyle%3DorthogonalEdgeStyle%3Brounded%3D0%3BorthogonalLoop%3D1%3BjettySize%3Dauto%3Bhtml%3D1%3BentryX%3D0%3BentryY%3D0.25%3BentryDx%3D0%3BentryDy%3D0%3B%22%20edge%3D%221%22%20parent%3D%224%22%20source%3D%226%22%20target%3D%225%22%3E%3CmxGeometry%20relative%3D%221%22%20as%3D%22geometry%22%2F%3E%3C%2FmxCell%3E%3C%2Froot%3E%3C%2FmxGraphModel%3E&lt;/span&gt;" style="ellipse;whiteSpace=wrap;html=1;align=center;fontStyle=4;movable=1;resizable=1;rotatable=1;deletable=1;editable=1;locked=0;connectable=1;" vertex="1" parent="nhqi5TZPJqlpEU0cdXb3-40">
          <mxGeometry width="100" height="40" as="geometry" />
        </mxCell>
        <mxCell id="nhqi5TZPJqlpEU0cdXb3-43" style="edgeStyle=orthogonalEdgeStyle;rounded=0;orthogonalLoop=1;jettySize=auto;html=1;entryX=0;entryY=0.25;entryDx=0;entryDy=0;" edge="1" parent="nhqi5TZPJqlpEU0cdXb3-40" source="nhqi5TZPJqlpEU0cdXb3-42" target="nhqi5TZPJqlpEU0cdXb3-41">
          <mxGeometry relative="1" as="geometry" />
        </mxCell>
        <mxCell id="nhqi5TZPJqlpEU0cdXb3-45" value="data" style="ellipse;whiteSpace=wrap;html=1;align=center;" vertex="1" parent="nhqi5TZPJqlpEU0cdXb3-47">
          <mxGeometry y="51" width="100" height="40" as="geometry" />
        </mxCell>
        <mxCell id="nhqi5TZPJqlpEU0cdXb3-46" style="edgeStyle=orthogonalEdgeStyle;rounded=0;orthogonalLoop=1;jettySize=auto;html=1;entryX=0;entryY=0.5;entryDx=0;entryDy=0;" edge="1" parent="nhqi5TZPJqlpEU0cdXb3-47" source="nhqi5TZPJqlpEU0cdXb3-45" target="nhqi5TZPJqlpEU0cdXb3-41">
          <mxGeometry relative="1" as="geometry" />
        </mxCell>
        <mxCell id="nhqi5TZPJqlpEU0cdXb3-48" value="" style="group" vertex="1" connectable="0" parent="1">
          <mxGeometry x="1055" y="-418" width="379.5" height="175" as="geometry" />
        </mxCell>
        <mxCell id="nhqi5TZPJqlpEU0cdXb3-59" value="" style="group" vertex="1" connectable="0" parent="nhqi5TZPJqlpEU0cdXb3-48">
          <mxGeometry x="11" y="-8" width="264" height="113" as="geometry" />
        </mxCell>
        <mxCell id="nhqi5TZPJqlpEU0cdXb3-51" value="" style="group" vertex="1" connectable="0" parent="nhqi5TZPJqlpEU0cdXb3-59">
          <mxGeometry width="264" height="51" as="geometry" />
        </mxCell>
        <mxCell id="nhqi5TZPJqlpEU0cdXb3-52" value="ItemAceite" style="rounded=1;arcSize=10;whiteSpace=wrap;html=1;align=center;movable=1;resizable=1;rotatable=1;deletable=1;editable=1;locked=0;connectable=1;" vertex="1" parent="nhqi5TZPJqlpEU0cdXb3-51">
          <mxGeometry x="132" y="11" width="132" height="40" as="geometry" />
        </mxCell>
        <mxCell id="nhqi5TZPJqlpEU0cdXb3-53" value="id_aceite&lt;span style=&quot;color: rgba(0, 0, 0, 0); font-family: monospace; font-size: 0px; text-align: start; text-wrap-mode: nowrap;&quot;&gt;%3CmxGraphModel%3E%3Croot%3E%3CmxCell%20id%3D%220%22%2F%3E%3CmxCell%20id%3D%221%22%20parent%3D%220%22%2F%3E%3CmxCell%20id%3D%222%22%20value%3D%22%22%20style%3D%22group%22%20vertex%3D%221%22%20connectable%3D%220%22%20parent%3D%221%22%3E%3CmxGeometry%20x%3D%221210%22%20y%3D%2219%22%20width%3D%22275%22%20height%3D%22131%22%20as%3D%22geometry%22%2F%3E%3C%2FmxCell%3E%3CmxCell%20id%3D%223%22%20value%3D%22%22%20style%3D%22group%22%20vertex%3D%221%22%20connectable%3D%220%22%20parent%3D%222%22%3E%3CmxGeometry%20x%3D%2211%22%20y%3D%2229%22%20width%3D%22264%22%20height%3D%22102%22%20as%3D%22geometry%22%2F%3E%3C%2FmxCell%3E%3CmxCell%20id%3D%224%22%20value%3D%22%22%20style%3D%22group%22%20vertex%3D%221%22%20connectable%3D%220%22%20parent%3D%223%22%3E%3CmxGeometry%20y%3D%2211%22%20width%3D%22264%22%20height%3D%2251%22%20as%3D%22geometry%22%2F%3E%3C%2FmxCell%3E%3CmxCell%20id%3D%225%22%20value%3D%22TermoDeCompromisso%22%20style%3D%22rounded%3D1%3BarcSize%3D10%3BwhiteSpace%3Dwrap%3Bhtml%3D1%3Balign%3Dcenter%3Bmovable%3D1%3Bresizable%3D1%3Brotatable%3D1%3Bdeletable%3D1%3Beditable%3D1%3Blocked%3D0%3Bconnectable%3D1%3B%22%20vertex%3D%221%22%20parent%3D%224%22%3E%3CmxGeometry%20x%3D%22132%22%20y%3D%2211%22%20width%3D%22132%22%20height%3D%2240%22%20as%3D%22geometry%22%2F%3E%3C%2FmxCell%3E%3CmxCell%20id%3D%226%22%20value%3D%22id_termo%22%20style%3D%22ellipse%3BwhiteSpace%3Dwrap%3Bhtml%3D1%3Balign%3Dcenter%3BfontStyle%3D4%3Bmovable%3D1%3Bresizable%3D1%3Brotatable%3D1%3Bdeletable%3D1%3Beditable%3D1%3Blocked%3D0%3Bconnectable%3D1%3B%22%20vertex%3D%221%22%20parent%3D%224%22%3E%3CmxGeometry%20width%3D%22100%22%20height%3D%2240%22%20as%3D%22geometry%22%2F%3E%3C%2FmxCell%3E%3CmxCell%20id%3D%227%22%20style%3D%22edgeStyle%3DorthogonalEdgeStyle%3Brounded%3D0%3BorthogonalLoop%3D1%3BjettySize%3Dauto%3Bhtml%3D1%3BentryX%3D0%3BentryY%3D0.25%3BentryDx%3D0%3BentryDy%3D0%3B%22%20edge%3D%221%22%20parent%3D%224%22%20source%3D%226%22%20target%3D%225%22%3E%3CmxGeometry%20relative%3D%221%22%20as%3D%22geometry%22%2F%3E%3C%2FmxCell%3E%3C%2Froot%3E%3C%2FmxGraphModel%3E&lt;/span&gt;" style="ellipse;whiteSpace=wrap;html=1;align=center;fontStyle=4;movable=1;resizable=1;rotatable=1;deletable=1;editable=1;locked=0;connectable=1;" vertex="1" parent="nhqi5TZPJqlpEU0cdXb3-51">
          <mxGeometry width="100" height="40" as="geometry" />
        </mxCell>
        <mxCell id="nhqi5TZPJqlpEU0cdXb3-54" style="edgeStyle=orthogonalEdgeStyle;rounded=0;orthogonalLoop=1;jettySize=auto;html=1;entryX=0;entryY=0.25;entryDx=0;entryDy=0;" edge="1" parent="nhqi5TZPJqlpEU0cdXb3-51" source="nhqi5TZPJqlpEU0cdXb3-53" target="nhqi5TZPJqlpEU0cdXb3-52">
          <mxGeometry relative="1" as="geometry" />
        </mxCell>
        <mxCell id="nhqi5TZPJqlpEU0cdXb3-55" value="&lt;u&gt;id_item&lt;/u&gt;" style="ellipse;whiteSpace=wrap;html=1;align=center;" vertex="1" parent="nhqi5TZPJqlpEU0cdXb3-59">
          <mxGeometry y="51" width="100" height="40" as="geometry" />
        </mxCell>
        <mxCell id="nhqi5TZPJqlpEU0cdXb3-57" value="texto" style="ellipse;whiteSpace=wrap;html=1;align=center;" vertex="1" parent="nhqi5TZPJqlpEU0cdXb3-59">
          <mxGeometry x="100" y="73" width="100" height="40" as="geometry" />
        </mxCell>
        <mxCell id="nhqi5TZPJqlpEU0cdXb3-56" style="edgeStyle=orthogonalEdgeStyle;rounded=0;orthogonalLoop=1;jettySize=auto;html=1;entryX=0;entryY=0.5;entryDx=0;entryDy=0;" edge="1" parent="nhqi5TZPJqlpEU0cdXb3-59" source="nhqi5TZPJqlpEU0cdXb3-55" target="nhqi5TZPJqlpEU0cdXb3-52">
          <mxGeometry relative="1" as="geometry" />
        </mxCell>
        <mxCell id="nhqi5TZPJqlpEU0cdXb3-58" style="edgeStyle=orthogonalEdgeStyle;rounded=0;orthogonalLoop=1;jettySize=auto;html=1;entryX=0.13;entryY=0.936;entryDx=0;entryDy=0;entryPerimeter=0;" edge="1" parent="nhqi5TZPJqlpEU0cdXb3-59" source="nhqi5TZPJqlpEU0cdXb3-57" target="nhqi5TZPJqlpEU0cdXb3-52">
          <mxGeometry relative="1" as="geometry" />
        </mxCell>
        <mxCell id="nhqi5TZPJqlpEU0cdXb3-62" style="edgeStyle=orthogonalEdgeStyle;rounded=0;orthogonalLoop=1;jettySize=auto;html=1;entryX=1;entryY=0.5;entryDx=0;entryDy=0;" edge="1" parent="nhqi5TZPJqlpEU0cdXb3-48" source="nhqi5TZPJqlpEU0cdXb3-60" target="nhqi5TZPJqlpEU0cdXb3-52">
          <mxGeometry relative="1" as="geometry" />
        </mxCell>
        <mxCell id="nhqi5TZPJqlpEU0cdXb3-63" value="(1,N)" style="edgeLabel;html=1;align=center;verticalAlign=middle;resizable=0;points=[];" vertex="1" connectable="0" parent="nhqi5TZPJqlpEU0cdXb3-62">
          <mxGeometry x="-0.1437" relative="1" as="geometry">
            <mxPoint as="offset" />
          </mxGeometry>
        </mxCell>
        <mxCell id="nhqi5TZPJqlpEU0cdXb3-60" value="Possui" style="shape=rhombus;perimeter=rhombusPerimeter;whiteSpace=wrap;html=1;align=center;" vertex="1" parent="nhqi5TZPJqlpEU0cdXb3-48">
          <mxGeometry x="259.5" y="115" width="120" height="60" as="geometry" />
        </mxCell>
        <mxCell id="nhqi5TZPJqlpEU0cdXb3-61" value="" style="edgeStyle=orthogonalEdgeStyle;rounded=0;orthogonalLoop=1;jettySize=auto;html=1;" edge="1" parent="1" source="nhqi5TZPJqlpEU0cdXb3-41" target="nhqi5TZPJqlpEU0cdXb3-60">
          <mxGeometry relative="1" as="geometry" />
        </mxCell>
        <mxCell id="nhqi5TZPJqlpEU0cdXb3-64" value="(1,N)" style="edgeLabel;html=1;align=center;verticalAlign=middle;resizable=0;points=[];" vertex="1" connectable="0" parent="nhqi5TZPJqlpEU0cdXb3-61">
          <mxGeometry x="-0.2922" y="-1" relative="1" as="geometry">
            <mxPoint as="offset" />
          </mxGeometry>
        </mxCell>
        <mxCell id="nhqi5TZPJqlpEU0cdXb3-65" value="Gera" style="shape=rhombus;perimeter=rhombusPerimeter;whiteSpace=wrap;html=1;align=center;" vertex="1" parent="1">
          <mxGeometry x="1718" y="-163" width="120" height="60" as="geometry" />
        </mxCell>
        <mxCell id="nhqi5TZPJqlpEU0cdXb3-66" style="edgeStyle=orthogonalEdgeStyle;rounded=0;orthogonalLoop=1;jettySize=auto;html=1;entryX=0.5;entryY=1;entryDx=0;entryDy=0;" edge="1" parent="1" source="nhqi5TZPJqlpEU0cdXb3-31" target="nhqi5TZPJqlpEU0cdXb3-65">
          <mxGeometry relative="1" as="geometry" />
        </mxCell>
        <mxCell id="nhqi5TZPJqlpEU0cdXb3-69" value="(1,1)" style="edgeLabel;html=1;align=center;verticalAlign=middle;resizable=0;points=[];" vertex="1" connectable="0" parent="nhqi5TZPJqlpEU0cdXb3-66">
          <mxGeometry x="-0.6379" y="-2" relative="1" as="geometry">
            <mxPoint as="offset" />
          </mxGeometry>
        </mxCell>
        <mxCell id="nhqi5TZPJqlpEU0cdXb3-67" style="edgeStyle=orthogonalEdgeStyle;rounded=0;orthogonalLoop=1;jettySize=auto;html=1;entryX=0.5;entryY=0;entryDx=0;entryDy=0;" edge="1" parent="1" source="nhqi5TZPJqlpEU0cdXb3-41" target="nhqi5TZPJqlpEU0cdXb3-65">
          <mxGeometry relative="1" as="geometry">
            <Array as="points">
              <mxPoint x="1276" y="-165" />
              <mxPoint x="1397" y="-165" />
              <mxPoint x="1397" y="-163" />
            </Array>
          </mxGeometry>
        </mxCell>
        <mxCell id="nhqi5TZPJqlpEU0cdXb3-68" value="(1,1)" style="edgeLabel;html=1;align=center;verticalAlign=middle;resizable=0;points=[];" vertex="1" connectable="0" parent="nhqi5TZPJqlpEU0cdXb3-67">
          <mxGeometry x="-0.2386" y="3" relative="1" as="geometry">
            <mxPoint as="offset" />
          </mxGeometry>
        </mxCell>
        <mxCell id="nhqi5TZPJqlpEU0cdXb3-73" style="edgeStyle=orthogonalEdgeStyle;rounded=0;orthogonalLoop=1;jettySize=auto;html=1;entryX=0.5;entryY=1;entryDx=0;entryDy=0;" edge="1" parent="1" source="nhqi5TZPJqlpEU0cdXb3-71" target="nhqi5TZPJqlpEU0cdXb3-31">
          <mxGeometry relative="1" as="geometry">
            <Array as="points">
              <mxPoint x="1441" y="165" />
              <mxPoint x="1777" y="165" />
            </Array>
          </mxGeometry>
        </mxCell>
        <mxCell id="nhqi5TZPJqlpEU0cdXb3-74" value="(1,N)" style="edgeLabel;html=1;align=center;verticalAlign=middle;resizable=0;points=[];" vertex="1" connectable="0" parent="nhqi5TZPJqlpEU0cdXb3-73">
          <mxGeometry x="-0.0873" y="1" relative="1" as="geometry">
            <mxPoint as="offset" />
          </mxGeometry>
        </mxCell>
        <mxCell id="nhqi5TZPJqlpEU0cdXb3-71" value="Possui" style="shape=rhombus;perimeter=rhombusPerimeter;whiteSpace=wrap;html=1;align=center;" vertex="1" parent="1">
          <mxGeometry x="1375" y="31" width="120" height="60" as="geometry" />
        </mxCell>
        <mxCell id="nhqi5TZPJqlpEU0cdXb3-72" style="edgeStyle=orthogonalEdgeStyle;rounded=0;orthogonalLoop=1;jettySize=auto;html=1;entryX=0.5;entryY=0;entryDx=0;entryDy=0;" edge="1" parent="1" source="nhqi5TZPJqlpEU0cdXb3-21" target="nhqi5TZPJqlpEU0cdXb3-71">
          <mxGeometry relative="1" as="geometry" />
        </mxCell>
        <mxCell id="nhqi5TZPJqlpEU0cdXb3-75" value="(1,N)" style="edgeLabel;html=1;align=center;verticalAlign=middle;resizable=0;points=[];" vertex="1" connectable="0" parent="nhqi5TZPJqlpEU0cdXb3-72">
          <mxGeometry x="-0.6928" y="-1" relative="1" as="geometry">
            <mxPoint as="offset" />
          </mxGeometry>
        </mxCell>
        <mxCell id="nhqi5TZPJqlpEU0cdXb3-76" value="" style="group" vertex="1" connectable="0" parent="1">
          <mxGeometry x="1342" y="-103" width="298" height="51" as="geometry" />
        </mxCell>
        <mxCell id="nhqi5TZPJqlpEU0cdXb3-26" value="id_termo" style="ellipse;whiteSpace=wrap;html=1;align=center;fontStyle=4;movable=1;resizable=1;rotatable=1;deletable=1;editable=1;locked=0;connectable=1;" vertex="1" parent="nhqi5TZPJqlpEU0cdXb3-76">
          <mxGeometry x="198" width="100" height="40" as="geometry" />
        </mxCell>
        <mxCell id="nhqi5TZPJqlpEU0cdXb3-21" value="TermoDeCompromisso" style="rounded=1;arcSize=10;whiteSpace=wrap;html=1;align=center;movable=1;resizable=1;rotatable=1;deletable=1;editable=1;locked=0;connectable=1;" vertex="1" parent="nhqi5TZPJqlpEU0cdXb3-76">
          <mxGeometry y="11" width="132" height="40" as="geometry" />
        </mxCell>
        <mxCell id="nhqi5TZPJqlpEU0cdXb3-27" style="edgeStyle=orthogonalEdgeStyle;rounded=0;orthogonalLoop=1;jettySize=auto;html=1;entryX=1;entryY=0.25;entryDx=0;entryDy=0;" edge="1" parent="nhqi5TZPJqlpEU0cdXb3-76" source="nhqi5TZPJqlpEU0cdXb3-26" target="nhqi5TZPJqlpEU0cdXb3-21">
          <mxGeometry relative="1" as="geometry" />
        </mxCell>
        <mxCell id="nhqi5TZPJqlpEU0cdXb3-79" style="edgeStyle=orthogonalEdgeStyle;rounded=0;orthogonalLoop=1;jettySize=auto;html=1;entryX=0.5;entryY=0;entryDx=0;entryDy=0;" edge="1" parent="1" source="nhqi5TZPJqlpEU0cdXb3-77" target="nhqi5TZPJqlpEU0cdXb3-21">
          <mxGeometry relative="1" as="geometry" />
        </mxCell>
        <mxCell id="nhqi5TZPJqlpEU0cdXb3-80" value="(0,1)" style="edgeLabel;html=1;align=center;verticalAlign=middle;resizable=0;points=[];" vertex="1" connectable="0" parent="nhqi5TZPJqlpEU0cdXb3-79">
          <mxGeometry x="-0.1887" y="2" relative="1" as="geometry">
            <mxPoint as="offset" />
          </mxGeometry>
        </mxCell>
        <mxCell id="nhqi5TZPJqlpEU0cdXb3-77" value="Contém" style="shape=rhombus;perimeter=rhombusPerimeter;whiteSpace=wrap;html=1;align=center;" vertex="1" parent="1">
          <mxGeometry x="1155" y="-132" width="120" height="60" as="geometry" />
        </mxCell>
        <mxCell id="nhqi5TZPJqlpEU0cdXb3-78" style="edgeStyle=orthogonalEdgeStyle;rounded=0;orthogonalLoop=1;jettySize=auto;html=1;entryX=0;entryY=0.5;entryDx=0;entryDy=0;" edge="1" parent="1" source="nhqi5TZPJqlpEU0cdXb3-2" target="nhqi5TZPJqlpEU0cdXb3-77">
          <mxGeometry relative="1" as="geometry" />
        </mxCell>
        <mxCell id="nhqi5TZPJqlpEU0cdXb3-81" value="(0,N)" style="edgeLabel;html=1;align=center;verticalAlign=middle;resizable=0;points=[];" vertex="1" connectable="0" parent="nhqi5TZPJqlpEU0cdXb3-78">
          <mxGeometry x="0.0165" y="-1" relative="1" as="geometry">
            <mxPoint as="offset" />
          </mxGeometry>
        </mxCell>
        <mxCell id="nhqi5TZPJqlpEU0cdXb3-82" value="" style="group" vertex="1" connectable="0" parent="1">
          <mxGeometry x="465" y="-396" width="232" height="95" as="geometry" />
        </mxCell>
        <mxCell id="nhqi5TZPJqlpEU0cdXb3-83" value="Candidato" style="rounded=1;arcSize=10;whiteSpace=wrap;html=1;align=center;movable=1;resizable=1;rotatable=1;deletable=1;editable=1;locked=0;connectable=1;" vertex="1" parent="nhqi5TZPJqlpEU0cdXb3-82">
          <mxGeometry x="132" y="22" width="100" height="40" as="geometry" />
        </mxCell>
        <mxCell id="nhqi5TZPJqlpEU0cdXb3-84" value="id_papel" style="ellipse;whiteSpace=wrap;html=1;align=center;fontStyle=4;movable=1;resizable=1;rotatable=1;deletable=1;editable=1;locked=0;connectable=1;" vertex="1" parent="nhqi5TZPJqlpEU0cdXb3-82">
          <mxGeometry width="100" height="40" as="geometry" />
        </mxCell>
        <mxCell id="nhqi5TZPJqlpEU0cdXb3-85" value="&lt;u&gt;id_pedido&lt;/u&gt;" style="ellipse;whiteSpace=wrap;html=1;align=center;movable=1;resizable=1;rotatable=1;deletable=1;editable=1;locked=0;connectable=1;" vertex="1" parent="nhqi5TZPJqlpEU0cdXb3-82">
          <mxGeometry y="55" width="100" height="40" as="geometry" />
        </mxCell>
        <mxCell id="nhqi5TZPJqlpEU0cdXb3-86" style="edgeStyle=orthogonalEdgeStyle;rounded=0;orthogonalLoop=1;jettySize=auto;html=1;entryX=0;entryY=0.5;entryDx=0;entryDy=0;" edge="1" parent="nhqi5TZPJqlpEU0cdXb3-82" source="nhqi5TZPJqlpEU0cdXb3-84" target="nhqi5TZPJqlpEU0cdXb3-83">
          <mxGeometry relative="1" as="geometry" />
        </mxCell>
        <mxCell id="nhqi5TZPJqlpEU0cdXb3-87" style="edgeStyle=orthogonalEdgeStyle;rounded=0;orthogonalLoop=1;jettySize=auto;html=1;entryX=0;entryY=0.75;entryDx=0;entryDy=0;" edge="1" parent="nhqi5TZPJqlpEU0cdXb3-82" source="nhqi5TZPJqlpEU0cdXb3-85" target="nhqi5TZPJqlpEU0cdXb3-83">
          <mxGeometry relative="1" as="geometry" />
        </mxCell>
        <mxCell id="nhqi5TZPJqlpEU0cdXb3-88" value="" style="group" vertex="1" connectable="0" parent="1">
          <mxGeometry x="77" y="-297" width="232" height="95" as="geometry" />
        </mxCell>
        <mxCell id="nhqi5TZPJqlpEU0cdXb3-97" value="" style="group" vertex="1" connectable="0" parent="nhqi5TZPJqlpEU0cdXb3-88">
          <mxGeometry width="232" height="95" as="geometry" />
        </mxCell>
        <mxCell id="nhqi5TZPJqlpEU0cdXb3-89" value="Voluntario" style="rounded=1;arcSize=10;whiteSpace=wrap;html=1;align=center;movable=1;resizable=1;rotatable=1;deletable=1;editable=1;locked=0;connectable=1;" vertex="1" parent="nhqi5TZPJqlpEU0cdXb3-97">
          <mxGeometry x="132" y="22" width="100" height="40" as="geometry" />
        </mxCell>
        <mxCell id="nhqi5TZPJqlpEU0cdXb3-90" value="id_papel" style="ellipse;whiteSpace=wrap;html=1;align=center;fontStyle=4;movable=1;resizable=1;rotatable=1;deletable=1;editable=1;locked=0;connectable=1;" vertex="1" parent="nhqi5TZPJqlpEU0cdXb3-97">
          <mxGeometry width="100" height="40" as="geometry" />
        </mxCell>
        <mxCell id="nhqi5TZPJqlpEU0cdXb3-91" value="&lt;u&gt;id_pedido&lt;/u&gt;" style="ellipse;whiteSpace=wrap;html=1;align=center;movable=1;resizable=1;rotatable=1;deletable=1;editable=1;locked=0;connectable=1;" vertex="1" parent="nhqi5TZPJqlpEU0cdXb3-97">
          <mxGeometry y="55" width="100" height="40" as="geometry" />
        </mxCell>
        <mxCell id="nhqi5TZPJqlpEU0cdXb3-92" style="edgeStyle=orthogonalEdgeStyle;rounded=0;orthogonalLoop=1;jettySize=auto;html=1;entryX=0;entryY=0.5;entryDx=0;entryDy=0;" edge="1" parent="nhqi5TZPJqlpEU0cdXb3-97" source="nhqi5TZPJqlpEU0cdXb3-90" target="nhqi5TZPJqlpEU0cdXb3-89">
          <mxGeometry relative="1" as="geometry" />
        </mxCell>
        <mxCell id="nhqi5TZPJqlpEU0cdXb3-93" style="edgeStyle=orthogonalEdgeStyle;rounded=0;orthogonalLoop=1;jettySize=auto;html=1;entryX=0;entryY=0.75;entryDx=0;entryDy=0;" edge="1" parent="nhqi5TZPJqlpEU0cdXb3-97" source="nhqi5TZPJqlpEU0cdXb3-91" target="nhqi5TZPJqlpEU0cdXb3-89">
          <mxGeometry relative="1" as="geometry" />
        </mxCell>
        <mxCell id="nhqi5TZPJqlpEU0cdXb3-94" value="" style="endArrow=block;endSize=16;endFill=0;html=1;rounded=0;exitX=0.5;exitY=1;exitDx=0;exitDy=0;entryX=1;entryY=0.5;entryDx=0;entryDy=0;" edge="1" parent="1" source="nhqi5TZPJqlpEU0cdXb3-83" target="7DgoJ2IFJHL6SHzVlsKf-21">
          <mxGeometry width="160" relative="1" as="geometry">
            <mxPoint x="561" y="-220" as="sourcePoint" />
            <mxPoint x="721" y="-220" as="targetPoint" />
            <Array as="points">
              <mxPoint x="647" y="-286" />
              <mxPoint x="737" y="-286" />
              <mxPoint x="737" y="-154" />
            </Array>
          </mxGeometry>
        </mxCell>
        <mxCell id="nhqi5TZPJqlpEU0cdXb3-95" value="" style="endArrow=block;endSize=16;endFill=0;html=1;rounded=0;entryX=0.5;entryY=0;entryDx=0;entryDy=0;" edge="1" parent="1" target="7DgoJ2IFJHL6SHzVlsKf-21">
          <mxGeometry width="160" relative="1" as="geometry">
            <mxPoint x="308" y="-253" as="sourcePoint" />
            <mxPoint x="523" y="-253" as="targetPoint" />
            <Array as="points">
              <mxPoint x="473" y="-253" />
              <mxPoint x="633" y="-253" />
            </Array>
          </mxGeometry>
        </mxCell>
        <mxCell id="nhqi5TZPJqlpEU0cdXb3-96" value="" style="endArrow=block;endSize=16;endFill=0;html=1;rounded=0;exitX=0.5;exitY=0;exitDx=0;exitDy=0;entryX=0.5;entryY=0;entryDx=0;entryDy=0;" edge="1" parent="1" source="nhqi5TZPJqlpEU0cdXb3-89" target="nhqi5TZPJqlpEU0cdXb3-83">
          <mxGeometry width="160" relative="1" as="geometry">
            <mxPoint x="231" y="-363" as="sourcePoint" />
            <mxPoint x="660" y="-451" as="targetPoint" />
            <Array as="points">
              <mxPoint x="259" y="-451" />
              <mxPoint x="462" y="-451" />
              <mxPoint x="647" y="-451" />
            </Array>
          </mxGeometry>
        </mxCell>
        <mxCell id="nhqi5TZPJqlpEU0cdXb3-98" value="" style="group" vertex="1" connectable="0" parent="1">
          <mxGeometry x="683" y="-704" width="232" height="95" as="geometry" />
        </mxCell>
        <mxCell id="nhqi5TZPJqlpEU0cdXb3-99" value="Representante" style="rounded=1;arcSize=10;whiteSpace=wrap;html=1;align=center;movable=1;resizable=1;rotatable=1;deletable=1;editable=1;locked=0;connectable=1;" vertex="1" parent="nhqi5TZPJqlpEU0cdXb3-98">
          <mxGeometry x="132" y="22" width="100" height="40" as="geometry" />
        </mxCell>
        <mxCell id="nhqi5TZPJqlpEU0cdXb3-100" value="id_representante" style="ellipse;whiteSpace=wrap;html=1;align=center;fontStyle=4;movable=1;resizable=1;rotatable=1;deletable=1;editable=1;locked=0;connectable=1;" vertex="1" parent="nhqi5TZPJqlpEU0cdXb3-98">
          <mxGeometry width="100" height="40" as="geometry" />
        </mxCell>
        <mxCell id="nhqi5TZPJqlpEU0cdXb3-101" value="nome" style="ellipse;whiteSpace=wrap;html=1;align=center;movable=1;resizable=1;rotatable=1;deletable=1;editable=1;locked=0;connectable=1;" vertex="1" parent="nhqi5TZPJqlpEU0cdXb3-98">
          <mxGeometry y="55" width="100" height="40" as="geometry" />
        </mxCell>
        <mxCell id="nhqi5TZPJqlpEU0cdXb3-102" style="edgeStyle=orthogonalEdgeStyle;rounded=0;orthogonalLoop=1;jettySize=auto;html=1;entryX=0;entryY=0.5;entryDx=0;entryDy=0;" edge="1" parent="nhqi5TZPJqlpEU0cdXb3-98" source="nhqi5TZPJqlpEU0cdXb3-100" target="nhqi5TZPJqlpEU0cdXb3-99">
          <mxGeometry relative="1" as="geometry" />
        </mxCell>
        <mxCell id="nhqi5TZPJqlpEU0cdXb3-103" style="edgeStyle=orthogonalEdgeStyle;rounded=0;orthogonalLoop=1;jettySize=auto;html=1;entryX=0;entryY=0.75;entryDx=0;entryDy=0;" edge="1" parent="nhqi5TZPJqlpEU0cdXb3-98" source="nhqi5TZPJqlpEU0cdXb3-101" target="nhqi5TZPJqlpEU0cdXb3-99">
          <mxGeometry relative="1" as="geometry" />
        </mxCell>
        <mxCell id="nhqi5TZPJqlpEU0cdXb3-117" value="" style="group" vertex="1" connectable="0" parent="1">
          <mxGeometry x="1011" y="-660" width="408" height="213.5" as="geometry" />
        </mxCell>
        <mxCell id="nhqi5TZPJqlpEU0cdXb3-118" value="" style="group" vertex="1" connectable="0" parent="nhqi5TZPJqlpEU0cdXb3-117">
          <mxGeometry width="221" height="40" as="geometry" />
        </mxCell>
        <mxCell id="nhqi5TZPJqlpEU0cdXb3-119" value="Aprovacao" style="rounded=1;arcSize=10;whiteSpace=wrap;html=1;align=center;" vertex="1" parent="nhqi5TZPJqlpEU0cdXb3-118">
          <mxGeometry x="121" width="100" height="40" as="geometry" />
        </mxCell>
        <mxCell id="nhqi5TZPJqlpEU0cdXb3-120" value="id_aprovacao" style="ellipse;whiteSpace=wrap;html=1;align=center;fontStyle=4;" vertex="1" parent="nhqi5TZPJqlpEU0cdXb3-118">
          <mxGeometry width="100" height="40" as="geometry" />
        </mxCell>
        <mxCell id="nhqi5TZPJqlpEU0cdXb3-121" style="edgeStyle=orthogonalEdgeStyle;rounded=0;orthogonalLoop=1;jettySize=auto;html=1;entryX=0;entryY=0.5;entryDx=0;entryDy=0;" edge="1" parent="nhqi5TZPJqlpEU0cdXb3-118" source="nhqi5TZPJqlpEU0cdXb3-120" target="nhqi5TZPJqlpEU0cdXb3-119">
          <mxGeometry relative="1" as="geometry" />
        </mxCell>
        <mxCell id="nhqi5TZPJqlpEU0cdXb3-122" value="data" style="ellipse;whiteSpace=wrap;html=1;align=center;" vertex="1" parent="nhqi5TZPJqlpEU0cdXb3-117">
          <mxGeometry y="53.5" width="100" height="40" as="geometry" />
        </mxCell>
        <mxCell id="nhqi5TZPJqlpEU0cdXb3-123" value="status" style="ellipse;whiteSpace=wrap;html=1;align=center;" vertex="1" parent="nhqi5TZPJqlpEU0cdXb3-117">
          <mxGeometry x="59" y="93.5" width="100" height="40" as="geometry" />
        </mxCell>
        <mxCell id="nhqi5TZPJqlpEU0cdXb3-124" value="motivo" style="ellipse;whiteSpace=wrap;html=1;align=center;" vertex="1" parent="nhqi5TZPJqlpEU0cdXb3-117">
          <mxGeometry x="154" y="93.5" width="100" height="40" as="geometry" />
        </mxCell>
        <mxCell id="nhqi5TZPJqlpEU0cdXb3-126" value="&lt;u&gt;id_representante&lt;/u&gt;" style="ellipse;whiteSpace=wrap;html=1;align=center;" vertex="1" parent="nhqi5TZPJqlpEU0cdXb3-117">
          <mxGeometry x="221" y="66" width="100" height="40" as="geometry" />
        </mxCell>
        <mxCell id="nhqi5TZPJqlpEU0cdXb3-127" value="&lt;u&gt;id_pedido&lt;/u&gt;" style="ellipse;whiteSpace=wrap;html=1;align=center;" vertex="1" parent="nhqi5TZPJqlpEU0cdXb3-117">
          <mxGeometry x="254" width="100" height="40" as="geometry" />
        </mxCell>
        <mxCell id="nhqi5TZPJqlpEU0cdXb3-128" style="edgeStyle=orthogonalEdgeStyle;rounded=0;orthogonalLoop=1;jettySize=auto;html=1;entryX=0.084;entryY=1.015;entryDx=0;entryDy=0;entryPerimeter=0;" edge="1" parent="nhqi5TZPJqlpEU0cdXb3-117" source="nhqi5TZPJqlpEU0cdXb3-122" target="nhqi5TZPJqlpEU0cdXb3-119">
          <mxGeometry relative="1" as="geometry" />
        </mxCell>
        <mxCell id="nhqi5TZPJqlpEU0cdXb3-129" style="edgeStyle=orthogonalEdgeStyle;rounded=0;orthogonalLoop=1;jettySize=auto;html=1;entryX=0.405;entryY=0.95;entryDx=0;entryDy=0;entryPerimeter=0;" edge="1" parent="nhqi5TZPJqlpEU0cdXb3-117" source="nhqi5TZPJqlpEU0cdXb3-123" target="nhqi5TZPJqlpEU0cdXb3-119">
          <mxGeometry relative="1" as="geometry" />
        </mxCell>
        <mxCell id="nhqi5TZPJqlpEU0cdXb3-130" style="edgeStyle=orthogonalEdgeStyle;rounded=0;orthogonalLoop=1;jettySize=auto;html=1;entryX=0.615;entryY=1.013;entryDx=0;entryDy=0;entryPerimeter=0;" edge="1" parent="nhqi5TZPJqlpEU0cdXb3-117" source="nhqi5TZPJqlpEU0cdXb3-124" target="nhqi5TZPJqlpEU0cdXb3-119">
          <mxGeometry relative="1" as="geometry" />
        </mxCell>
        <mxCell id="nhqi5TZPJqlpEU0cdXb3-131" style="edgeStyle=orthogonalEdgeStyle;rounded=0;orthogonalLoop=1;jettySize=auto;html=1;entryX=0.843;entryY=0.992;entryDx=0;entryDy=0;entryPerimeter=0;" edge="1" parent="nhqi5TZPJqlpEU0cdXb3-117" source="nhqi5TZPJqlpEU0cdXb3-126" target="nhqi5TZPJqlpEU0cdXb3-119">
          <mxGeometry relative="1" as="geometry" />
        </mxCell>
        <mxCell id="nhqi5TZPJqlpEU0cdXb3-132" style="edgeStyle=orthogonalEdgeStyle;rounded=0;orthogonalLoop=1;jettySize=auto;html=1;entryX=1;entryY=0.5;entryDx=0;entryDy=0;" edge="1" parent="nhqi5TZPJqlpEU0cdXb3-117" source="nhqi5TZPJqlpEU0cdXb3-127" target="nhqi5TZPJqlpEU0cdXb3-119">
          <mxGeometry relative="1" as="geometry">
            <Array as="points" />
          </mxGeometry>
        </mxCell>
        <mxCell id="nhqi5TZPJqlpEU0cdXb3-136" style="edgeStyle=orthogonalEdgeStyle;rounded=0;orthogonalLoop=1;jettySize=auto;html=1;entryX=0.5;entryY=0;entryDx=0;entryDy=0;" edge="1" parent="1" source="nhqi5TZPJqlpEU0cdXb3-134" target="nhqi5TZPJqlpEU0cdXb3-119">
          <mxGeometry relative="1" as="geometry" />
        </mxCell>
        <mxCell id="nhqi5TZPJqlpEU0cdXb3-137" value="(1,N)" style="edgeLabel;html=1;align=center;verticalAlign=middle;resizable=0;points=[];" vertex="1" connectable="0" parent="nhqi5TZPJqlpEU0cdXb3-136">
          <mxGeometry x="-0.131" y="1" relative="1" as="geometry">
            <mxPoint as="offset" />
          </mxGeometry>
        </mxCell>
        <mxCell id="nhqi5TZPJqlpEU0cdXb3-134" value="Solicita" style="shape=rhombus;perimeter=rhombusPerimeter;whiteSpace=wrap;html=1;align=center;" vertex="1" parent="1">
          <mxGeometry x="949" y="-781" width="120" height="60" as="geometry" />
        </mxCell>
        <mxCell id="nhqi5TZPJqlpEU0cdXb3-135" style="edgeStyle=orthogonalEdgeStyle;rounded=0;orthogonalLoop=1;jettySize=auto;html=1;entryX=0;entryY=0.5;entryDx=0;entryDy=0;" edge="1" parent="1" source="nhqi5TZPJqlpEU0cdXb3-99" target="nhqi5TZPJqlpEU0cdXb3-134">
          <mxGeometry relative="1" as="geometry">
            <Array as="points">
              <mxPoint x="865" y="-751" />
            </Array>
          </mxGeometry>
        </mxCell>
        <mxCell id="nhqi5TZPJqlpEU0cdXb3-138" value="(1,1)" style="edgeLabel;html=1;align=center;verticalAlign=middle;resizable=0;points=[];" vertex="1" connectable="0" parent="nhqi5TZPJqlpEU0cdXb3-135">
          <mxGeometry x="0.1177" relative="1" as="geometry">
            <mxPoint as="offset" />
          </mxGeometry>
        </mxCell>
        <mxCell id="nhqi5TZPJqlpEU0cdXb3-140" style="edgeStyle=orthogonalEdgeStyle;rounded=0;orthogonalLoop=1;jettySize=auto;html=1;" edge="1" parent="1" source="nhqi5TZPJqlpEU0cdXb3-139" target="nhqi5TZPJqlpEU0cdXb3-119">
          <mxGeometry relative="1" as="geometry" />
        </mxCell>
        <mxCell id="nhqi5TZPJqlpEU0cdXb3-143" value="(1,1)" style="edgeLabel;html=1;align=center;verticalAlign=middle;resizable=0;points=[];" vertex="1" connectable="0" parent="nhqi5TZPJqlpEU0cdXb3-140">
          <mxGeometry x="-0.4938" y="4" relative="1" as="geometry">
            <mxPoint as="offset" />
          </mxGeometry>
        </mxCell>
        <mxCell id="nhqi5TZPJqlpEU0cdXb3-139" value="Passa por" style="shape=rhombus;perimeter=rhombusPerimeter;whiteSpace=wrap;html=1;align=center;" vertex="1" parent="1">
          <mxGeometry x="915" y="-495" width="120" height="60" as="geometry" />
        </mxCell>
        <mxCell id="nhqi5TZPJqlpEU0cdXb3-141" style="edgeStyle=orthogonalEdgeStyle;rounded=0;orthogonalLoop=1;jettySize=auto;html=1;" edge="1" parent="1" source="nhqi5TZPJqlpEU0cdXb3-139">
          <mxGeometry relative="1" as="geometry">
            <mxPoint x="1078" y="-55" as="targetPoint" />
            <Array as="points">
              <mxPoint x="975" y="-176" />
              <mxPoint x="1023" y="-176" />
              <mxPoint x="1023" y="-143" />
              <mxPoint x="1078" y="-143" />
            </Array>
          </mxGeometry>
        </mxCell>
        <mxCell id="nhqi5TZPJqlpEU0cdXb3-142" value="(1,1)" style="edgeLabel;html=1;align=center;verticalAlign=middle;resizable=0;points=[];" vertex="1" connectable="0" parent="nhqi5TZPJqlpEU0cdXb3-141">
          <mxGeometry x="-0.2788" y="-2" relative="1" as="geometry">
            <mxPoint as="offset" />
          </mxGeometry>
        </mxCell>
        <mxCell id="nhqi5TZPJqlpEU0cdXb3-146" style="edgeStyle=orthogonalEdgeStyle;rounded=0;orthogonalLoop=1;jettySize=auto;html=1;entryX=0.5;entryY=0;entryDx=0;entryDy=0;" edge="1" parent="1" source="nhqi5TZPJqlpEU0cdXb3-144" target="nhqi5TZPJqlpEU0cdXb3-2">
          <mxGeometry relative="1" as="geometry">
            <Array as="points">
              <mxPoint x="808" y="-132" />
              <mxPoint x="1051" y="-132" />
            </Array>
          </mxGeometry>
        </mxCell>
        <mxCell id="nhqi5TZPJqlpEU0cdXb3-147" value="(1,N)" style="edgeLabel;html=1;align=center;verticalAlign=middle;resizable=0;points=[];" vertex="1" connectable="0" parent="nhqi5TZPJqlpEU0cdXb3-146">
          <mxGeometry x="-0.3614" y="-1" relative="1" as="geometry">
            <mxPoint y="1" as="offset" />
          </mxGeometry>
        </mxCell>
        <mxCell id="nhqi5TZPJqlpEU0cdXb3-144" value="Avalia" style="shape=rhombus;perimeter=rhombusPerimeter;whiteSpace=wrap;html=1;align=center;" vertex="1" parent="1">
          <mxGeometry x="748" y="-517" width="120" height="60" as="geometry" />
        </mxCell>
        <mxCell id="nhqi5TZPJqlpEU0cdXb3-145" style="edgeStyle=orthogonalEdgeStyle;rounded=0;orthogonalLoop=1;jettySize=auto;html=1;entryX=0.5;entryY=0;entryDx=0;entryDy=0;" edge="1" parent="1" source="nhqi5TZPJqlpEU0cdXb3-99" target="nhqi5TZPJqlpEU0cdXb3-144">
          <mxGeometry relative="1" as="geometry" />
        </mxCell>
        <mxCell id="nhqi5TZPJqlpEU0cdXb3-148" value="(1,1)" style="edgeLabel;html=1;align=center;verticalAlign=middle;resizable=0;points=[];" vertex="1" connectable="0" parent="nhqi5TZPJqlpEU0cdXb3-145">
          <mxGeometry x="-0.7084" y="3" relative="1" as="geometry">
            <mxPoint as="offset" />
          </mxGeometry>
        </mxCell>
        <mxCell id="nhqi5TZPJqlpEU0cdXb3-150" style="edgeStyle=orthogonalEdgeStyle;rounded=0;orthogonalLoop=1;jettySize=auto;html=1;entryX=0.25;entryY=0;entryDx=0;entryDy=0;" edge="1" parent="1" source="nhqi5TZPJqlpEU0cdXb3-149" target="nhqi5TZPJqlpEU0cdXb3-99">
          <mxGeometry relative="1" as="geometry" />
        </mxCell>
        <mxCell id="nhqi5TZPJqlpEU0cdXb3-153" value="(1,1)" style="edgeLabel;html=1;align=center;verticalAlign=middle;resizable=0;points=[];" vertex="1" connectable="0" parent="nhqi5TZPJqlpEU0cdXb3-150">
          <mxGeometry x="-0.1424" y="-1" relative="1" as="geometry">
            <mxPoint as="offset" />
          </mxGeometry>
        </mxCell>
        <mxCell id="nhqi5TZPJqlpEU0cdXb3-151" style="edgeStyle=orthogonalEdgeStyle;rounded=0;orthogonalLoop=1;jettySize=auto;html=1;entryX=0.5;entryY=0;entryDx=0;entryDy=0;" edge="1" parent="1" source="nhqi5TZPJqlpEU0cdXb3-149" target="7DgoJ2IFJHL6SHzVlsKf-141">
          <mxGeometry relative="1" as="geometry">
            <Array as="points">
              <mxPoint x="1859" y="-839" />
              <mxPoint x="1859" y="198" />
              <mxPoint x="1623" y="198" />
            </Array>
          </mxGeometry>
        </mxCell>
        <mxCell id="nhqi5TZPJqlpEU0cdXb3-152" value="(1,N)" style="edgeLabel;html=1;align=center;verticalAlign=middle;resizable=0;points=[];" vertex="1" connectable="0" parent="nhqi5TZPJqlpEU0cdXb3-151">
          <mxGeometry x="0.3486" y="-2" relative="1" as="geometry">
            <mxPoint y="1" as="offset" />
          </mxGeometry>
        </mxCell>
        <mxCell id="nhqi5TZPJqlpEU0cdXb3-149" value="Solicita" style="shape=rhombus;perimeter=rhombusPerimeter;whiteSpace=wrap;html=1;align=center;" vertex="1" parent="1">
          <mxGeometry x="748" y="-869" width="120" height="60" as="geometry" />
        </mxCell>
        <mxCell id="nhqi5TZPJqlpEU0cdXb3-155" style="edgeStyle=orthogonalEdgeStyle;rounded=0;orthogonalLoop=1;jettySize=auto;html=1;entryX=0.25;entryY=0;entryDx=0;entryDy=0;" edge="1" parent="1" source="nhqi5TZPJqlpEU0cdXb3-154" target="7DgoJ2IFJHL6SHzVlsKf-64">
          <mxGeometry relative="1" as="geometry">
            <Array as="points">
              <mxPoint x="165" y="1100" />
              <mxPoint x="165" y="684" />
              <mxPoint x="509" y="684" />
            </Array>
          </mxGeometry>
        </mxCell>
        <mxCell id="nhqi5TZPJqlpEU0cdXb3-158" value="(1,N)" style="edgeLabel;html=1;align=center;verticalAlign=middle;resizable=0;points=[];" vertex="1" connectable="0" parent="nhqi5TZPJqlpEU0cdXb3-155">
          <mxGeometry x="0.6234" y="-3" relative="1" as="geometry">
            <mxPoint as="offset" />
          </mxGeometry>
        </mxCell>
        <mxCell id="nhqi5TZPJqlpEU0cdXb3-156" style="edgeStyle=orthogonalEdgeStyle;rounded=0;orthogonalLoop=1;jettySize=auto;html=1;entryX=0.5;entryY=0;entryDx=0;entryDy=0;" edge="1" parent="1" source="nhqi5TZPJqlpEU0cdXb3-154" target="nhqi5TZPJqlpEU0cdXb3-99">
          <mxGeometry relative="1" as="geometry">
            <Array as="points">
              <mxPoint x="627" y="1097" />
              <mxPoint x="627" y="330" />
              <mxPoint x="770" y="330" />
              <mxPoint x="770" y="-429" />
              <mxPoint x="781" y="-429" />
              <mxPoint x="781" y="-682" />
            </Array>
          </mxGeometry>
        </mxCell>
        <mxCell id="nhqi5TZPJqlpEU0cdXb3-157" value="(1,1)" style="edgeLabel;html=1;align=center;verticalAlign=middle;resizable=0;points=[];" vertex="1" connectable="0" parent="nhqi5TZPJqlpEU0cdXb3-156">
          <mxGeometry x="0.8197" relative="1" as="geometry">
            <mxPoint as="offset" />
          </mxGeometry>
        </mxCell>
        <mxCell id="nhqi5TZPJqlpEU0cdXb3-154" value="Especifica" style="shape=rhombus;perimeter=rhombusPerimeter;whiteSpace=wrap;html=1;align=center;" vertex="1" parent="1">
          <mxGeometry x="474" y="1067" width="120" height="60" as="geometry" />
        </mxCell>
        <mxCell id="nhqi5TZPJqlpEU0cdXb3-160" style="edgeStyle=orthogonalEdgeStyle;rounded=0;orthogonalLoop=1;jettySize=auto;html=1;entryX=0.5;entryY=1;entryDx=0;entryDy=0;" edge="1" parent="1" source="nhqi5TZPJqlpEU0cdXb3-159" target="7DgoJ2IFJHL6SHzVlsKf-21">
          <mxGeometry relative="1" as="geometry" />
        </mxCell>
        <mxCell id="nhqi5TZPJqlpEU0cdXb3-163" value="(1,1)" style="edgeLabel;html=1;align=center;verticalAlign=middle;resizable=0;points=[];" vertex="1" connectable="0" parent="nhqi5TZPJqlpEU0cdXb3-160">
          <mxGeometry x="0.0764" y="3" relative="1" as="geometry">
            <mxPoint as="offset" />
          </mxGeometry>
        </mxCell>
        <mxCell id="nhqi5TZPJqlpEU0cdXb3-161" style="edgeStyle=orthogonalEdgeStyle;rounded=0;orthogonalLoop=1;jettySize=auto;html=1;entryX=1;entryY=0.75;entryDx=0;entryDy=0;" edge="1" parent="1" source="nhqi5TZPJqlpEU0cdXb3-159" target="7DgoJ2IFJHL6SHzVlsKf-93">
          <mxGeometry relative="1" as="geometry">
            <Array as="points">
              <mxPoint x="792" y="-73" />
              <mxPoint x="792" y="264" />
              <mxPoint x="1066" y="264" />
              <mxPoint x="1066" y="589" />
            </Array>
          </mxGeometry>
        </mxCell>
        <mxCell id="nhqi5TZPJqlpEU0cdXb3-162" value="(1,1)" style="edgeLabel;html=1;align=center;verticalAlign=middle;resizable=0;points=[];" vertex="1" connectable="0" parent="nhqi5TZPJqlpEU0cdXb3-161">
          <mxGeometry x="0.5831" y="-2" relative="1" as="geometry">
            <mxPoint y="1" as="offset" />
          </mxGeometry>
        </mxCell>
        <mxCell id="nhqi5TZPJqlpEU0cdXb3-159" value="Composto" style="shape=rhombus;perimeter=rhombusPerimeter;whiteSpace=wrap;html=1;align=center;" vertex="1" parent="1">
          <mxGeometry x="638" y="-103" width="120" height="60" as="geometry" />
        </mxCell>
      </root>
    </mxGraphModel>
  </diagram>
</mxfile>
